<svg width="120" height="55" viewBox="0 0 120 55" fill="none" xmlns="http://www.w3.org/2000/svg">
<path d="M108.079 20.2724C108.067 20.811 107.569 21.2017 107.072 21.1112C107.755 21.236 109.344 21.4108 110.238 21.1112C109.72 21.1893 109.247 20.7946 109.235 20.2683C109.235 20.297 108.885 17.505 110.283 14.9227C111.48 12.7145 112.146 12.9448 113.548 12.4102C115.344 11.7235 117.19 11.0163 118.457 9.47427C120.525 6.95362 119.978 3.49954 119.801 2.56612C117.581 5.75292 115.332 4.84828 113.067 6.29981C110.764 7.77602 109.736 10.1034 109.958 12.5953C112.24 8.60664 115.122 10.3625 118.099 6.37383C117.375 7.57453 116.385 8.61898 115.151 9.36325C113.379 10.4488 112.524 10.1322 109.839 14.0304C109.346 14.7459 108.947 15.5271 108.659 16.3454C108.326 15.3997 107.845 14.4909 107.236 13.6932C106.015 12.1018 105.477 11.2013 104.408 10.4324C102.944 9.37147 100.452 8.96439 98.4419 5.61722C101.797 10.1199 104.942 8.06386 107.5 12.5418C107.754 9.70455 106.554 7.151 104.042 5.53909C101.521 3.92308 99.0216 4.93052 96.5506 1.38187C96.3533 2.4222 95.7448 6.26692 98.0472 9.0713C99.4527 10.7843 101.495 11.5661 103.487 12.3285L103.507 12.3362C104.465 12.7022 106.928 12.8132 107.89 17.2007C108.153 18.4179 108.108 19.121 108.079 20.2724Z" fill="#00730C"/>
<path d="M5.64 41.32C4.81333 41.32 4.17333 41.0933 3.72 40.64C3.29333 40.16 3.08 39.5067 3.08 38.68V15.4C3.08 14.5467 3.30667 13.9067 3.76 13.48C4.21333 13.0267 4.85333 12.8 5.68 12.8H15.32C18.4133 12.8 20.8 13.5733 22.48 15.12C24.16 16.6667 25 18.8267 25 21.6C25 24.3733 24.16 26.5467 22.48 28.12C20.8 29.6667 18.4133 30.44 15.32 30.44H8.2V38.68C8.2 39.5067 7.98667 40.16 7.56 40.64C7.13333 41.0933 6.49333 41.32 5.64 41.32ZM8.2 26.4H14.52C16.3333 26.4 17.7067 26 18.64 25.2C19.5733 24.3733 20.04 23.1733 20.04 21.6C20.04 20.0267 19.5733 18.84 18.64 18.04C17.7067 17.24 16.3333 16.84 14.52 16.84H8.2V26.4ZM35.3738 41.4C33.1604 41.4 31.4938 40.7733 30.3738 39.52C29.2538 38.24 28.6938 36.3733 28.6938 33.92V15C28.6938 14.1733 28.9071 13.5467 29.3338 13.12C29.7604 12.6933 30.3738 12.48 31.1738 12.48C31.9738 12.48 32.5871 12.6933 33.0138 13.12C33.4671 13.5467 33.6938 14.1733 33.6938 15V33.68C33.6938 34.9067 33.9471 35.8133 34.4538 36.4C34.9871 36.9867 35.7338 37.28 36.6938 37.28C36.9071 37.28 37.1071 37.28 37.2938 37.28C37.4804 37.2533 37.6671 37.2267 37.8537 37.2C38.2271 37.1467 38.4804 37.2533 38.6138 37.52C38.7471 37.76 38.8138 38.2667 38.8138 39.04C38.8138 39.7067 38.6804 40.2267 38.4138 40.6C38.1471 40.9733 37.7071 41.2 37.0938 41.28C36.8271 41.3067 36.5471 41.3333 36.2538 41.36C35.9604 41.3867 35.6671 41.4 35.3738 41.4ZM47.9072 41.4C46.4939 41.4 45.2272 41.1333 44.1072 40.6C43.0139 40.04 42.1472 39.2933 41.5072 38.36C40.8939 37.4267 40.5872 36.3733 40.5872 35.2C40.5872 33.76 40.9605 32.6267 41.7072 31.8C42.4539 30.9467 43.6672 30.3333 45.3472 29.96C47.0272 29.5867 49.2805 29.4 52.1072 29.4H54.1072V32.28H52.1472C50.4939 32.28 49.1739 32.36 48.1872 32.52C47.2005 32.68 46.4939 32.96 46.0672 33.36C45.6672 33.7333 45.4672 34.2667 45.4672 34.96C45.4672 35.84 45.7739 36.56 46.3872 37.12C47.0005 37.68 47.8539 37.96 48.9472 37.96C49.8272 37.96 50.6005 37.76 51.2672 37.36C51.9605 36.9333 52.5072 36.36 52.9072 35.64C53.3072 34.92 53.5072 34.0933 53.5072 33.16V28.56C53.5072 27.2267 53.2139 26.2667 52.6272 25.68C52.0405 25.0933 51.0539 24.8 49.6672 24.8C48.8939 24.8 48.0539 24.8933 47.1472 25.08C46.2672 25.2667 45.3339 25.5867 44.3472 26.04C43.8405 26.28 43.3872 26.3467 42.9872 26.24C42.6139 26.1333 42.3205 25.92 42.1072 25.6C41.8939 25.2533 41.7872 24.88 41.7872 24.48C41.7872 24.08 41.8939 23.6933 42.1072 23.32C42.3205 22.92 42.6805 22.6267 43.1872 22.44C44.4139 21.9333 45.5872 21.5733 46.7072 21.36C47.8539 21.1467 48.8939 21.04 49.8272 21.04C51.7472 21.04 53.3205 21.3333 54.5472 21.92C55.8005 22.5067 56.7339 23.4 57.3472 24.6C57.9605 25.7733 58.2672 27.2933 58.2672 29.16V38.76C58.2672 39.5867 58.0672 40.2267 57.6672 40.68C57.2672 41.1067 56.6939 41.32 55.9472 41.32C55.2005 41.32 54.6139 41.1067 54.1872 40.68C53.7872 40.2267 53.5872 39.5867 53.5872 38.76V36.84H53.9072C53.7205 37.7733 53.3472 38.5867 52.7872 39.28C52.2539 39.9467 51.5739 40.4667 50.7472 40.84C49.9205 41.2133 48.9739 41.4 47.9072 41.4ZM65.8222 41.32C65.0222 41.32 64.4089 41.1067 63.9822 40.68C63.5555 40.2267 63.3422 39.5867 63.3422 38.76V23.64C63.3422 22.8133 63.5555 22.1867 63.9822 21.76C64.4089 21.3333 65.0089 21.12 65.7822 21.12C66.5555 21.12 67.1555 21.3333 67.5822 21.76C68.0089 22.1867 68.2222 22.8133 68.2222 23.64V26.36L67.7822 25.36C68.3689 23.9467 69.2755 22.88 70.5022 22.16C71.7555 21.4133 73.1689 21.04 74.7422 21.04C76.3155 21.04 77.6089 21.3333 78.6222 21.92C79.6355 22.5067 80.3955 23.4 80.9022 24.6C81.4089 25.7733 81.6622 27.2667 81.6622 29.08V38.76C81.6622 39.5867 81.4489 40.2267 81.0222 40.68C80.5955 41.1067 79.9822 41.32 79.1822 41.32C78.3822 41.32 77.7555 41.1067 77.3022 40.68C76.8755 40.2267 76.6622 39.5867 76.6622 38.76V29.32C76.6622 27.8 76.3689 26.6933 75.7822 26C75.2222 25.3067 74.3422 24.96 73.1422 24.96C71.6755 24.96 70.5022 25.4267 69.6222 26.36C68.7689 27.2667 68.3422 28.48 68.3422 30V38.76C68.3422 40.4667 67.5022 41.32 65.8222 41.32ZM95.7006 41.4C93.9673 41.4 92.514 41.1067 91.3406 40.52C90.194 39.9333 89.3406 39.08 88.7806 37.96C88.2206 36.8133 87.9406 35.4 87.9406 33.72V25.2H85.8606C85.2206 25.2 84.7273 25.04 84.3806 24.72C84.034 24.3733 83.8606 23.9067 83.8606 23.32C83.8606 22.7067 84.034 22.24 84.3806 21.92C84.7273 21.6 85.2206 21.44 85.8606 21.44H87.9406V17.8C87.9406 16.9733 88.154 16.3467 88.5806 15.92C89.034 15.4933 89.6606 15.28 90.4606 15.28C91.2606 15.28 91.874 15.4933 92.3006 15.92C92.7273 16.3467 92.9406 16.9733 92.9406 17.8V21.44H97.1806C97.8206 21.44 98.314 21.6 98.6606 21.92C99.0073 22.24 99.1806 22.7067 99.1806 23.32C99.1806 23.9067 99.0073 24.3733 98.6606 24.72C98.314 25.04 97.8206 25.2 97.1806 25.2H92.9406V33.44C92.9406 34.72 93.2206 35.68 93.7806 36.32C94.3406 36.96 95.2473 37.28 96.5006 37.28C96.954 37.28 97.354 37.24 97.7006 37.16C98.0473 37.08 98.354 37.0267 98.6206 37C98.9406 36.9733 99.2073 37.08 99.4206 37.32C99.634 37.5333 99.7406 37.9867 99.7406 38.68C99.7406 39.2133 99.6473 39.6933 99.4606 40.12C99.3006 40.52 98.994 40.8 98.5406 40.96C98.194 41.0667 97.7406 41.16 97.1806 41.24C96.6206 41.3467 96.1273 41.4 95.7006 41.4Z" fill="#0B0B0B"/>
<path d="M109.252 41.4C108.106 41.4 106.892 41.28 105.612 41.04C104.332 40.8 103.186 40.3867 102.172 39.8C101.746 39.5333 101.439 39.2267 101.252 38.88C101.092 38.5067 101.026 38.1467 101.052 37.8C101.106 37.4267 101.239 37.1067 101.452 36.84C101.692 36.5733 101.986 36.4 102.332 36.32C102.706 36.24 103.106 36.3067 103.532 36.52C104.599 37.0267 105.599 37.3867 106.532 37.6C107.466 37.7867 108.386 37.88 109.292 37.88C110.572 37.88 111.519 37.6667 112.132 37.24C112.772 36.7867 113.092 36.2 113.092 35.48C113.092 34.8667 112.879 34.4 112.452 34.08C112.052 33.7333 111.439 33.48 110.612 33.32L106.612 32.56C104.959 32.24 103.692 31.64 102.812 30.76C101.959 29.8533 101.532 28.6933 101.532 27.28C101.532 26 101.879 24.8933 102.572 23.96C103.292 23.0267 104.279 22.3067 105.532 21.8C106.786 21.2933 108.226 21.04 109.852 21.04C111.026 21.04 112.119 21.1733 113.132 21.44C114.172 21.68 115.172 22.0667 116.132 22.6C116.532 22.8133 116.799 23.0933 116.932 23.44C117.092 23.7867 117.132 24.1467 117.052 24.52C116.972 24.8667 116.812 25.1867 116.572 25.48C116.332 25.7467 116.026 25.92 115.652 26C115.306 26.0533 114.906 25.9733 114.452 25.76C113.626 25.3333 112.826 25.0267 112.052 24.84C111.306 24.6533 110.586 24.56 109.892 24.56C108.586 24.56 107.612 24.7867 106.972 25.24C106.359 25.6933 106.052 26.2933 106.052 27.04C106.052 27.6 106.239 28.0667 106.612 28.44C106.986 28.8133 107.559 29.0667 108.332 29.2L112.332 29.96C114.066 30.28 115.372 30.8667 116.252 31.72C117.159 32.5733 117.612 33.72 117.612 35.16C117.612 37.1067 116.852 38.64 115.332 39.76C113.812 40.8533 111.786 41.4 109.252 41.4Z" fill="#00730C"/>
</svg>
