<svg aria-hidden="true" style="position: absolute; width: 0; height: 0; overflow: hidden;" version="1.1" xmlns="http://www.w3.org/2000/svg" xmlns:xlink="http://www.w3.org/1999/xlink">
<defs>
<symbol id="icon-admin" viewBox="0 0 32 32">
<path d="M15.772 15.415c2.118 0 3.951-0.76 5.45-2.258s2.258-3.332 2.258-5.449c0-2.117-0.76-3.951-2.258-5.449s-3.332-2.258-5.45-2.258c-2.118 0-3.951 0.76-5.449 2.258s-2.258 3.332-2.258 5.449c0 2.118 0.76 3.951 2.258 5.45s3.332 2.258 5.449 2.258zM11.649 3.584c1.15-1.15 2.498-1.708 4.123-1.708s2.974 0.559 4.124 1.708c1.15 1.15 1.709 2.499 1.709 4.123s-0.559 2.974-1.709 4.124c-1.15 1.15-2.499 1.709-4.124 1.709s-2.973-0.559-4.123-1.709c-1.15-1.15-1.709-2.499-1.709-4.124s0.559-2.973 1.709-4.123z"></path>
<path d="M29.258 24.606c-0.043-0.624-0.131-1.304-0.259-2.022-0.13-0.724-0.297-1.408-0.497-2.033-0.207-0.646-0.488-1.284-0.836-1.896-0.36-0.635-0.784-1.187-1.26-1.642-0.497-0.476-1.106-0.858-1.81-1.137-0.702-0.278-1.479-0.418-2.311-0.418-0.327 0-0.643 0.134-1.253 0.531-0.376 0.245-0.815 0.528-1.305 0.841-0.419 0.267-0.987 0.517-1.688 0.744-0.684 0.221-1.379 0.334-2.065 0.334s-1.38-0.112-2.065-0.334c-0.701-0.226-1.269-0.477-1.687-0.744-0.486-0.31-0.925-0.593-1.306-0.842-0.61-0.397-0.926-0.531-1.252-0.531-0.832 0-1.609 0.141-2.311 0.419-0.704 0.279-1.313 0.661-1.811 1.137-0.476 0.455-0.899 1.008-1.26 1.642-0.347 0.612-0.629 1.25-0.836 1.896-0.2 0.625-0.367 1.309-0.497 2.033-0.129 0.717-0.216 1.398-0.259 2.023-0.042 0.611-0.064 1.247-0.064 1.89 0 1.67 0.531 3.023 1.578 4.020 1.034 0.984 2.402 1.483 4.067 1.483h15.408c1.664 0 3.032-0.499 4.066-1.483 1.047-0.997 1.578-2.349 1.578-4.020-0-0.645-0.022-1.281-0.065-1.89zM26.451 29.158c-0.683 0.65-1.591 0.967-2.774 0.967h-15.408c-1.183 0-2.091-0.316-2.774-0.966-0.67-0.638-0.996-1.509-0.996-2.662 0-0.6 0.020-1.192 0.059-1.76 0.039-0.558 0.117-1.17 0.234-1.821 0.115-0.643 0.262-1.246 0.437-1.792 0.168-0.524 0.396-1.042 0.68-1.542 0.271-0.476 0.582-0.885 0.926-1.214 0.322-0.308 0.727-0.56 1.204-0.749 0.442-0.175 0.938-0.271 1.477-0.285 0.066 0.035 0.183 0.102 0.372 0.225 0.386 0.251 0.83 0.538 1.321 0.852 0.554 0.353 1.267 0.672 2.119 0.947 0.871 0.282 1.76 0.425 2.642 0.425s1.771-0.143 2.642-0.425c0.853-0.276 1.566-0.594 2.12-0.948 0.503-0.321 0.935-0.6 1.32-0.851 0.189-0.123 0.306-0.19 0.372-0.225 0.539 0.014 1.035 0.11 1.477 0.285 0.477 0.189 0.883 0.441 1.204 0.749 0.344 0.329 0.655 0.737 0.926 1.214 0.284 0.499 0.513 1.018 0.68 1.541 0.175 0.547 0.322 1.15 0.437 1.792 0.117 0.652 0.196 1.265 0.234 1.822v0c0.040 0.566 0.060 1.158 0.060 1.759-0 1.153-0.326 2.024-0.996 2.661z"></path>
</symbol>
<symbol id="icon-slider-left" viewBox="0 0 32 32">
<path d="M23.467 16c0 0.497-0.179 0.994-0.537 1.373l-11.264 11.925c-0.717 0.759-1.878 0.759-2.595 0s-0.716-1.988 0-2.746l9.967-10.551-9.967-10.551c-0.716-0.759-0.716-1.988 0-2.746s1.878-0.759 2.595 0l11.264 11.925c0.358 0.379 0.537 0.876 0.537 1.373z"></path>
</symbol>
<symbol id="icon-slider-right" viewBox="0 0 32 32">
<path d="M8.533 16c0 0.497 0.179 0.994 0.537 1.373l11.264 11.925c0.717 0.759 1.878 0.759 2.595 0s0.716-1.988 0-2.746l-9.967-10.551 9.967-10.551c0.716-0.759 0.716-1.988 0-2.746s-1.878-0.759-2.595 0l-11.264 11.925c-0.358 0.379-0.537 0.876-0.537 1.373z"></path>
</symbol>
<symbol id="icon-quotes" viewBox="0 0 40 32">
<path d="M8.239 12.784c0.488-3.068 4.322-6.344 7.32-6.414 0.209 0 0.418-0.070 0.558-0.209 0.139-0.070 0.279-0.139 0.349-0.349 1.046-1.952 0.488-3.486-1.255-4.741-2.022-1.464-5.229 0-6.832 1.325-4.044 3.346-8.157 9.133-7.948 14.641-0.697 3.695-0.558 7.669 0.488 10.946 0.697 2.092 2.719 3.137 4.811 3.277s6.414 0.767 8.296-0.488c1.882-1.255 2.022-3.695 2.231-5.787 0.209-2.301 0.837-6.623-1.116-8.436-1.952-1.743-7.53 0.139-6.902-3.765z"></path>
<path d="M30.928 12.784c0.488-3.068 4.322-6.344 7.32-6.414 0.209 0 0.418-0.070 0.558-0.209 0.14-0.070 0.279-0.139 0.349-0.349 1.046-1.952 0.488-3.486-1.255-4.741-2.022-1.464-5.229 0-6.832 1.325-4.044 3.346-8.157 9.133-7.948 14.641-0.697 3.695-0.558 7.669 0.488 10.946 0.697 2.092 2.719 3.137 4.811 3.277s6.414 0.767 8.296-0.488c1.882-1.255 2.022-3.695 2.231-5.787 0.209-2.301 0.837-6.623-1.115-8.436-1.952-1.743-7.599 0.139-6.902-3.765z"></path>
</symbol>
<symbol id="icon-icon-star" viewBox="0 0 32 32">
<path d="M28.294 9.871l-8.359-0.775-3.32-7.71c-0.232-0.54-0.998-0.54-1.23 0l-3.32 7.71-8.359 0.775c-0.585 0.054-0.822 0.782-0.38 1.17l6.307 5.54-1.846 8.189c-0.129 0.573 0.49 1.023 0.995 0.723l7.218-4.286 7.218 4.286c0.505 0.3 1.125-0.15 0.995-0.723l-1.846-8.189 6.307-5.54c0.442-0.388 0.205-1.116-0.38-1.17z"></path>
<path d="M17.823 4.189l-1.207-2.804c-0.233-0.54-0.998-0.54-1.23 0l-3.32 7.71-8.359 0.775c-0.585 0.054-0.822 0.782-0.38 1.17l6.307 5.54-1.846 8.189c-0.129 0.573 0.49 1.023 0.995 0.723l0.961-0.57c1.575-10.195 6.003-17.679 8.080-20.734z"></path>
</symbol>
<symbol id="icon-ellipse" viewBox="0 0 41 32">
<path d="M40.783 21.523c0 13.769-15.593 9.533-29.361 9.533s-11.059-13.223-11.059-26.992 10.31 14.978 24.079 14.978c13.769 0 16.341-11.287 16.341 2.481z"></path>
</symbol>
<symbol id="icon-branch-cut" viewBox="0 0 29 32">
<path d="M1.903 8.534l-0.8 1.386c-0.295 0.51-0.12 1.162 0.39 1.457l5.080 2.933c0.51 0.295 1.163 0.12 1.457-0.39l0.8-1.386c0.295-0.51 0.12-1.162-0.39-1.457l-5.081-2.933c-0.51-0.295-1.163-0.12-1.457 0.39z"></path>
<path d="M12.011 13.669l-1.984-1.136-1.333 2.309c2.208 1.269 2.043 1.211 2.245 1.189 0.308 0.394 0.589 0.807 0.843 1.237 0.369-0.741 0.792-1.454 1.264-2.133-0.352-0.304-0.651-0.533-0.869-0.693 0.153-0.262 0.081-0.597-0.165-0.773z"></path>
<path d="M6.573 22.49l-5.081 2.933c-0.51 0.295-0.685 0.947-0.39 1.457l0.8 1.386c0.295 0.51 0.947 0.685 1.457 0.39l5.081-2.933c0.51-0.295 0.685-0.947 0.39-1.457l-0.8-1.386c-0.295-0.51-0.947-0.685-1.457-0.39z"></path>
<path d="M22.331 10.203c-2.704 1.152-2.533 1.040-3.355 1.531-1.963 1.136-3.909 2.341-5.131 4.128-0.527 0.822-1.004 1.676-1.429 2.555-0.405 0.842-0.894 1.641-1.461 2.384-0.224 0-0.032-0.096-2.251 1.184l1.323 2.283 1.973-1.136c0.249-0.188 0.314-0.535 0.149-0.8l0.032 0.043c1.475-1.12 2.772-2.458 3.845-3.968 2.021-2.784-0.107-1.232 6.933-5.296l6.4-3.685c-2.372-0.295-4.78-0.028-7.029 0.779z"></path>
<path d="M16.672 19.333c-0.655 0.881-1.381 1.707-2.171 2.469 1.195 1.387 4.064 3.141 5.579 3.867-0.265 1.347-0.648 2.668-1.147 3.947-0.217 0.444-0.17 0.971 0.12 1.37s0.779 0.605 1.268 0.535c0.489-0.070 0.899-0.405 1.065-0.87 0.526-1.281 0.94-2.605 1.237-3.957 2.16 0.732 4.457 0.966 6.72 0.683l-6.187-3.573c0.439-3.172 0.439-6.39 0-9.563l-2.539 1.467c0.222 2.201 0.222 4.418 0 6.619-3.765-2.16-2.992-1.584-3.947-2.992z"></path>
<path d="M17.328 7.552c-1.067-2.976-6.373-5.040-8.421-3.371-0.059 1.344 1.275 3.024 3.339 4.059 1.925 0.96 3.909 1.067 5.013 0.384 0.604 0.077 1.215 0.077 1.819 0 0.176 0.533 0.347 1.067 0.491 1.6l2.421-1.024c0.085 0 0.059 0 0-0.144-0.261-2.848 4.037-4.891 4.037-4.907 0.479-0.16 0.827-0.577 0.898-1.078s-0.147-0.998-0.563-1.285c-0.416-0.287-0.959-0.314-1.401-0.070-1.685 0.8-3.169 1.968-4.341 3.419-0.572-1.348-1.224-2.66-1.952-3.931-0.23-0.426-0.673-0.693-1.157-0.699s-0.933 0.251-1.173 0.671c-0.24 0.42-0.235 0.937 0.015 1.351 0.927 1.62 1.721 3.313 2.373 5.061-0.466 0.039-0.934 0.027-1.397-0.037z"></path>
</symbol>
<symbol id="icon-flower_bg" viewBox="0 0 38 32">
<path d="M26.188 9.77c-3.674 2.235-4.086 7.027-3.94 10.062 2.795-3.285 6.238-5.026 8.204-5.354-3.162 1.239-5.544 3.705-7.525 6.428-0.799 1.401-1.535 2.772-1.952 4.285-0.456-1.772-1.234-3.429-2.074-5.122-2.358-3.675-5.257-7.047-9.256-8.889 2.52 0.573 6.847 3.087 10.216 7.55 0.42-3.917 0.247-10.152-4.34-13.322-5.046-3.487-11.416-4.677-14.562-5.069-0.715-0.089-1.212 0.695-0.821 1.301 1.030 1.597 2.429 4.44 2.635 8.323 0.205 3.881 0.444 11.052 14.301 12.124 2.058 3.762 3.072 5.767 3.447 9.362 0.028 0.273 0.414 0.298 0.479 0.032 0.255-1.041 0.926-6.276 3.243-8.939 10.718-0.202 11.223-5.713 11.557-8.692 0.305-2.733 1.343-4.748 2.18-5.976 0.401-0.588-0.061-1.378-0.77-1.322-2.556 0.204-7.198 0.893-11.022 3.218z"></path>
</symbol>
<symbol id="icon-flower-scap" viewBox="0 0 32 32">
<path d="M8.78 22.999c0.679-1.382-0.178-3.149-0.723-4.003h-2.588c-0.133 0-0.26 0.053-0.354 0.146s-0.146 0.221-0.146 0.354c0 2.070 1.777 3.546 3.812 3.503z"></path>
<path d="M17.472 18.996h-6.007c0.412 0.982 0.67 2.606 0.464 3.999 1.43-0.002 2.773-0.002 2.858 0.001 0.122 0.005 2.034-0.633 2.839-0.892 0.101-0.032 0.188-0.096 0.25-0.181s0.096-0.188 0.096-0.294v-2.132c0-0.133-0.053-0.26-0.146-0.354s-0.221-0.146-0.354-0.146z"></path>
<path d="M27.997 13.504c-2.988-0.179-5.025 2.925-3.997 5.493h-0.5c-0.133 0-0.26 0.053-0.354 0.146s-0.146 0.221-0.146 0.354v2c0 0.133 0.053 0.26 0.146 0.354s0.221 0.146 0.354 0.146h4.25c0.576-0.001 1.145-0.118 1.674-0.345s1.006-0.559 1.403-0.976c0.397-0.417 0.705-0.91 0.906-1.45s0.29-1.114 0.262-1.689c-0.105-2.156-1.844-3.903-3.998-4.032zM27.75 19.996c-0.445 0-0.88-0.132-1.25-0.379s-0.658-0.599-0.829-1.010c-0.17-0.411-0.215-0.864-0.128-1.3s0.301-0.837 0.616-1.152c0.315-0.315 0.716-0.529 1.152-0.616s0.889-0.042 1.3 0.128c0.411 0.17 0.762 0.459 1.010 0.829s0.379 0.805 0.379 1.25c-0.001 0.597-0.238 1.168-0.66 1.59s-0.994 0.659-1.59 0.66z"></path>
<path d="M21.497 20.5h-1.998c-0.133-0-0.26-0.053-0.353-0.147s-0.146-0.221-0.146-0.353v-14.5c-0-0.132 0.052-0.259 0.145-0.353s0.22-0.147 0.352-0.147c1.867-0.001 3.602 1.704 3.498 3.619v6.2c0.004 0.27-0.941 2.945-0.999 3.185v1.996c0 0.132-0.053 0.26-0.146 0.353s-0.221 0.146-0.353 0.147z"></path>
<path d="M19 22v1.725c-3.204-0.975-6.539 2.010-5.194 5.737 0.315 0.879 0.954 1.604 1.784 2.029 3.206 1.631 6.409-0.672 6.409-3.71v-5.781c0-0.133-0.053-0.26-0.146-0.354s-0.221-0.146-0.354-0.146h-2c-0.133 0-0.26 0.053-0.354 0.146s-0.146 0.221-0.146 0.354zM17.75 30.031c-0.445 0-0.88-0.132-1.25-0.379s-0.658-0.599-0.829-1.010c-0.17-0.411-0.215-0.864-0.128-1.3s0.301-0.837 0.616-1.152c0.315-0.315 0.716-0.529 1.152-0.616s0.889-0.042 1.3 0.128 0.763 0.459 1.010 0.829c0.247 0.37 0.379 0.805 0.379 1.25-0.001 0.597-0.238 1.168-0.66 1.59s-0.994 0.659-1.59 0.66z"></path>
<path d="M7.934 16.67c0.684 1.866 2.066 2.539 2.066 5.33 0 3.651-5 3.246-5 9.5 0 0.643 1 0.636 1 0 0-5.708 5-4.758 5-9.5 0-3.121-1.421-3.832-2.085-5.694-0.24-0.672-1.198-0.228-0.981 0.364z"></path>
<path d="M16.546 6.528c-0.090-0.037-1.817-0.733-3.472-0.833 0.707-1.467 0.958-3.239 0.971-3.334 0.010-0.083-0.001-0.168-0.031-0.246s-0.081-0.147-0.145-0.202c-0.064-0.054-0.141-0.091-0.224-0.108s-0.168-0.013-0.248 0.012c-0.092 0.030-1.863 0.607-3.195 1.594-0.401-1.578-1.348-3.097-1.399-3.178-0.046-0.071-0.108-0.128-0.182-0.169s-0.157-0.061-0.241-0.061c-0.084 0-0.167 0.021-0.241 0.061s-0.137 0.098-0.182 0.169c-0.052 0.082-1.037 1.663-1.423 3.275-1.322-0.951-3.024-1.506-3.115-1.535-0.080-0.025-0.166-0.029-0.248-0.012s-0.159 0.054-0.224 0.108c-0.064 0.054-0.114 0.123-0.145 0.201s-0.042 0.163-0.031 0.246c0.013 0.096 0.274 1.94 1.015 3.423-1.624 0.122-3.284 0.791-3.372 0.827-0.077 0.033-0.145 0.085-0.198 0.15s-0.087 0.144-0.102 0.226-0.008 0.168 0.018 0.248c0.027 0.080 0.073 0.152 0.134 0.209 0.072 0.065 1.458 1.31 2.978 1.97-1.166 1.137-2.008 2.716-2.053 2.801-0.038 0.075-0.057 0.158-0.055 0.242s0.025 0.166 0.067 0.239 0.102 0.134 0.173 0.178c0.072 0.044 0.153 0.069 0.237 0.074 0.097 0.004 1.958 0.067 3.548-0.405-0.162 1.62 0.208 3.372 0.228 3.464 0.019 0.082 0.058 0.158 0.114 0.221s0.126 0.111 0.205 0.14c0.079 0.029 0.164 0.037 0.247 0.025s0.162-0.045 0.229-0.096c0.077-0.060 1.543-1.208 2.457-2.591 0.917 1.346 2.327 2.449 2.402 2.508 0.067 0.051 0.146 0.084 0.229 0.096s0.168 0.004 0.247-0.025c0.079-0.029 0.15-0.077 0.205-0.14s0.095-0.139 0.114-0.221c0.021-0.095 0.406-1.917 0.217-3.564 1.567 0.441 3.356 0.381 3.451 0.377 0.084-0.004 0.166-0.030 0.237-0.074s0.131-0.105 0.173-0.178 0.065-0.155 0.067-0.239c0.002-0.084-0.017-0.167-0.055-0.242-0.045-0.086-0.922-1.729-2.125-2.87 1.484-0.669 2.816-1.866 2.887-1.93 0.061-0.057 0.108-0.129 0.134-0.209s0.033-0.165 0.018-0.248c-0.015-0.083-0.050-0.161-0.102-0.226s-0.12-0.117-0.198-0.15zM8.378 11.001c-0.494 0-0.978-0.147-1.389-0.421s-0.732-0.665-0.921-1.122-0.239-0.96-0.142-1.444c0.096-0.485 0.335-0.93 0.684-1.28s0.795-0.588 1.28-0.684c0.485-0.096 0.988-0.047 1.444 0.142s0.847 0.51 1.122 0.921 0.421 0.894 0.421 1.389c0 0.663-0.263 1.299-0.732 1.768s-1.105 0.732-1.768 0.732z"></path>
</symbol>
<symbol id="icon-garden-design" viewBox="0 0 32 32">
<path d="M18.965 5.33c-1.108-1.058-2.865-1.017-3.923 0.091s-1.018 2.864 0.091 3.923 2.865 1.017 3.923-0.091c1.058-1.108 1.017-2.864-0.091-3.923z"></path>
<path d="M23.64 14.587c0-0.602-0.432-1.103-1.003-1.211 0.115 0.297 0.196 0.636 0.196 1.003 0 0.564-0.191 1.063-0.403 1.441 0.67-0.013 1.21-0.559 1.21-1.233z"></path>
<path d="M31.036 25.556h-0.712c-0.475 0-0.931-0.189-1.267-0.525l-0.369-0.369v-1.717c0.198-0.303 0.417-0.752 0.417-1.253 0-0.915-0.729-1.656-0.729-1.656s-0.729 0.741-0.729 1.656c0 0.501 0.219 0.95 0.417 1.253v0.428c-0.054-0.101-0.123-0.197-0.208-0.283-0.464-0.464-1.259-0.422-1.259-0.422s-0.042 0.795 0.422 1.259c0.313 0.313 0.776 0.396 1.045 0.416v0.319l-0.369 0.369c-0.336 0.336-0.792 0.525-1.267 0.525h-1.291c-0.475 0-0.931-0.189-1.267-0.525l-0.108-0.108c-0.317-0.317-0.83-0.317-1.147 0l-0.108 0.108c-0.336 0.336-0.792 0.525-1.267 0.525h-3.77c0.642-0.339 0.974-1.096 0.752-1.816l-1.723-5.421c-0.172-0.56-0.646-0.974-1.224-1.069l-0.318-0.052-2.579 2.702 1.453 0.239 1.442 4.507c0.125 0.408 0.404 0.725 0.754 0.91h-5.522c0.779-0.412 1.051-1.384 0.614-2.137l-3.071-5.292 2.37 2.537 4.156-4.354-1.352-3.304 2.331 3.322c0.087 0.124 0.196 0.231 0.322 0.316l4.375 2.938c0.567 0.381 1.333 0.228 1.712-0.336 0.37-0.551 0.235-1.292-0.295-1.681v-1.93c0.198-0.303 0.416-0.752 0.416-1.253 0-0.915-0.729-1.656-0.729-1.656s-0.729 0.741-0.729 1.656c0 0.501 0.219 0.95 0.417 1.254v1.507l-3.601-2.418-2.199-3.134 1.507 1.364 1.016 0.877 2.304 1.547c-0.114-0.295-0.194-0.632-0.194-0.997 0-0.377 0.085-0.724 0.205-1.026h-1.664l-4.641-3.762c-0.749-0.715-1.935-0.687-2.65 0.062l-6.365 6.768c-0.446 0.474-0.574 1.2-0.229 1.794 0.492 0.848 1.956 3.371 2.574 4.436h-4.472c-0.85 0-1.569 0.672-1.58 1.523-0.008 0.599 0.327 1.121 0.82 1.383h-0.937c-0.531 0-0.962 0.444-0.937 0.983 0.024 0.504 0.459 0.892 0.964 0.892h30.098c0.533 0 0.962-0.444 0.936-0.983-0.024-0.504-0.458-0.892-0.963-0.892z"></path>
</symbol>
<symbol id="icon-grass-cuttin" viewBox="0 0 35 32">
<path d="M14.334 26.224c0-2.809-2.286-5.095-5.095-5.095s-5.095 2.286-5.095 5.095 2.286 5.095 5.095 5.095c2.921 0 5.095-2.393 5.095-5.095zM8.22 26.224c0-0.563 0.456-1.019 1.019-1.019s1.019 0.456 1.019 1.019c0 0.563-0.456 1.019-1.019 1.019s-1.019-0.456-1.019-1.019z"></path>
<path d="M30.706 23.167c-2.248 0-4.076 1.828-4.076 4.076 0 2.191 1.773 4.076 4.076 4.076 2.248 0 4.076-1.828 4.076-4.076 0-2.302-1.876-4.076-4.076-4.076z"></path>
<path d="M30.706 21.129c0.576 0 1.123 0.101 1.664 0.259-0.588-1.475-1.838-2.639-3.449-3.060-13.378-3.46-11.489-2.95-12.302-3.159-2.055-0.517-4.417 0.37-5.571 2.216l-1.124 1.776c3.608 0.351 6.448 3.366 6.448 7.064 0 1.063-0.252 2.105-0.707 3.057h9.287c-0.003-0.008-0.007-0.014-0.010-0.022-0.227-0.605-0.35-1.3-0.35-2.016-0-3.372 2.742-6.114 6.114-6.114zM19.429 24.186c0 0.563-0.456 1.019-1.019 1.019s-1.019-0.456-1.019-1.019v-2.038c0-0.563 0.456-1.019 1.019-1.019s1.019 0.456 1.019 1.019v2.038zM23.573 24.186c0 0.563-0.456 1.019-1.019 1.019s-1.019-0.456-1.019-1.019v-2.038c0-0.563 0.456-1.019 1.019-1.019s1.019 0.456 1.019 1.019v2.038z"></path>
<path d="M27.649 15.015c0 0.563 0.524 1.019 1.087 1.019h4.008c0.563 0 1.019-0.456 1.019-1.019s-0.456-1.019-1.019-1.019h-4.008c-0.563 0-1.087 0.456-1.087 1.019z"></path>
<path d="M26.835 11.958c0.282 0.489 0.907 0.653 1.392 0.373l3.525-2.038c0.488-0.282 0.655-0.905 0.373-1.392-0.284-0.49-0.908-0.654-1.392-0.373l-3.525 2.038c-0.488 0.282-0.655 0.905-0.373 1.392z"></path>
<path d="M26.019 9.341l1.969-3.53c0.282-0.488 0.114-1.111-0.373-1.392s-1.112-0.116-1.392 0.373l-1.969 3.53c-0.282 0.488-0.114 1.111 0.373 1.392 0.486 0.281 1.11 0.115 1.392-0.373z"></path>
<path d="M0.697 2.666l5.557 1.898 1.484 14.693c1.278-0.276 1.831-0.127 2.037-0.112l-1.56-15.442c-0.041-0.399-0.311-0.737-0.692-0.864l-6.182-2.106c-0.537-0.179-1.111 0.11-1.289 0.644s0.111 1.112 0.644 1.289z"></path>
<path d="M22.289 12.421c-1.993-0.533-3.314-0.863-4.174-1.062-0.897-0.234-1.847-0.037-2.592 0.539-0.397 0.307-0.698 0.699-0.901 1.138 0.777-0.086 1.576-0.075 2.494 0.156l7.427 1.893c-0.127-1.279-1.005-2.36-2.254-2.665z"></path>
</symbol>
<symbol id="icon-pest" viewBox="0 0 32 32">
<path d="M17.115 29.187c-0.039-0.033-0.077-0.067-0.115-0.101v0.122c0.039-0.007 0.077-0.014 0.115-0.021z"></path>
<path d="M31.492 0c-0.027 0-2.715 0.048-6.358 0.534-0.419 0.056-0.584 0.607-0.253 0.881 1.533 1.269-0.438 4.334-2.294 2.642-0.086-0.076-0.196-0.12-0.311-0.125s-0.228 0.030-0.32 0.099c-0.687 0.499-1.705 0.602-2.478 0.251-0.119-0.054-0.254-0.059-0.377-0.015s-0.223 0.135-0.28 0.253c-0.813 1.682-3.67 0.981-3.297-1.062 0.014-0.086 0.005-0.174-0.025-0.255s-0.080-0.154-0.146-0.21c-0.066-0.056-0.145-0.095-0.231-0.112s-0.173-0.011-0.256 0.016c-2.403 0.844-4.487 1.901-6.196 3.144-0.055 0.040-0.102 0.090-0.137 0.149s-0.058 0.123-0.068 0.191c-0.009 0.067-0.005 0.136 0.013 0.202s0.049 0.127 0.091 0.181c0.977 1.216-0.017 3.253-1.564 3.237-0.133-0-0.261 0.052-0.356 0.146s-0.149 0.221-0.15 0.355c0.001 1.249-1.27 2.239-2.472 1.943-0.119-0.030-0.246-0.014-0.354 0.044s-0.192 0.153-0.235 0.269c-1.726 4.694-0.555 9.841 0.838 13.553l-3.984 3.984c-0.874 0.867 0.436 2.389 1.414 1.414l4.012-4.012c1.919 0.592 6.092 1.69 8.28 1.759v-1.954c-0.005-0.546 0.35-0.971 0.724-1.346 0.428-0.428-0.235-1.030-0.625-0.632l-0.539 0.539c-1.32 1.345-3.539-0.705-2.121-2.121l1.061-1.061v-1.879c-0.001-0.279 0.076-0.552 0.223-0.789s0.357-0.428 0.606-0.552c0.617-0.308 1.365-0.597 1.684-1.267 0.167-0.328 0.239-0.697 0.207-1.064s-0.167-0.718-0.388-1.012c-0.359-0.48-0.331-1.426-0.331-2.012 0-0.308-0.076-0.61-0.221-0.882s-0.355-0.502-0.611-0.673c-1.693-1.12 0.068-3.569 1.664-2.496 0.115 0.077 0.249 0.12 0.387 0.126s0.275-0.027 0.396-0.094c0.121-0.067 0.221-0.166 0.289-0.286s0.102-0.257 0.098-0.395c-0-0.016-0.001-0.031-0.001-0.046-0.023-2.036 3-2.015 3-0.057 0 0.912 1 2 2.5 2s2.5-1.241 2.5-2c0-2.041 3-1.902 3 0 0 0.007 0 0.014 0 0.021-0.001 0.135 0.032 0.268 0.097 0.386s0.159 0.218 0.273 0.289c0.114 0.071 0.245 0.112 0.38 0.118s0.269-0.022 0.389-0.082c0.799-0.394 1.758-0.282 2.198 0.589 0.663-3.43 1.005-6.976 1.162-10.297 0.002-0.068-0.009-0.136-0.034-0.199s-0.061-0.121-0.109-0.17c-0.047-0.049-0.104-0.088-0.167-0.114s-0.13-0.040-0.198-0.040z"></path>
<path d="M31.854 24.646l-1.354-1.354v-2.293c0-0.093-0.026-0.184-0.075-0.263s-0.119-0.143-0.202-0.184l-1.805-0.903c-0.201-1.042-0.765-1.979-1.59-2.647l1.471-1.103c0.062-0.047 0.113-0.107 0.147-0.176s0.053-0.146 0.053-0.224v-2.732l1.277-0.852c0.505-0.337 0.010-1.217-0.555-0.832l-1.5 1c-0.068 0.046-0.125 0.108-0.163 0.18s-0.059 0.154-0.059 0.236v2.75l-1.577 1.183c-0.153-0.073-0.311-0.136-0.472-0.191l-0.313-1.279c-0.189-0.775-0.658-1.453-1.318-1.902 1.324-0.864 2.68-1.795 2.68-3.56 0-0.619-1-0.673-1 0 0 1.744-1.596 2.297-2.775 3.082-0.478-0.108-0.973-0.108-1.451 0-1.156-0.77-2.775-1.389-2.775-3.082 0-0.619-1-0.673-1 0 0 1.828 1.297 2.669 2.678 3.561-0.659 0.449-1.128 1.127-1.317 1.902l-0.313 1.279c-0.161 0.055-0.318 0.119-0.472 0.191l-1.577-1.183v-2.75c0-0.082-0.020-0.163-0.059-0.236s-0.095-0.134-0.164-0.18l-1.5-1c-0.553-0.376-1.075 0.493-0.555 0.832l1.277 0.852v2.732c0 0.078 0.018 0.154 0.053 0.224s0.085 0.13 0.147 0.176l1.471 1.104c-0.825 0.667-1.388 1.604-1.59 2.646l-1.805 0.903c-0.083 0.042-0.153 0.105-0.202 0.184s-0.075 0.17-0.075 0.263v2.293l-1.354 1.354c-0.421 0.413 0.207 1.204 0.707 0.707l1.5-1.5c0.046-0.046 0.083-0.102 0.108-0.162s0.038-0.126 0.038-0.191v-2.191l1-0.469c0.719-1.172 2.103-1.84 4-1.84h5c1.897 0 3.282 0.668 4 1.84v-0.031l1 0.5v2.191c0 0.066 0.013 0.131 0.038 0.191s0.062 0.116 0.108 0.162l1.5 1.5c0.446 0.454 1.165-0.257 0.707-0.707z"></path>
<path d="M19.5 20v5.754c0 1.517 0.626 3.052 1.659 4.19 0.113 0.015 0.226 0.026 0.341 0.034v-9.979h-2z"></path>
<path d="M24.5 20h-2v9.979c0.114-0.009 0.228-0.020 0.34-0.034 1.033-1.139 1.66-2.674 1.66-4.19v-5.754z"></path>
<path d="M18.5 25.754v-5.665c-1.412 0.264-2.418 1.092-3 2.219v1.192c-0.001 0.933 0.2 1.855 0.59 2.703l-0.943 0.943c-0.046 0.046-0.083 0.102-0.108 0.162s-0.038 0.126-0.038 0.191v2.293l-1.354 1.353c-0.418 0.409 0.204 1.207 0.707 0.707l1.5-1.5c0.046-0.046 0.083-0.102 0.108-0.162s0.038-0.126 0.038-0.191v-2.293l0.598-0.598c0.737 1.099 1.79 1.949 3.019 2.437-0.709-1.141-1.117-2.472-1.117-3.792z"></path>
<path d="M30.353 31.146l-1.354-1.353v-2.293c0-0.066-0.013-0.131-0.038-0.191s-0.062-0.116-0.108-0.162l-0.943-0.943c0.39-0.848 0.591-1.77 0.59-2.703v-1.192c-0.582-1.126-1.588-1.955-3-2.219v5.665c0 1.32-0.408 2.651-1.117 3.792 1.23-0.488 2.283-1.338 3.019-2.437l0.598 0.598v2.293c0 0.066 0.013 0.131 0.038 0.191s0.062 0.116 0.108 0.162l1.5 1.5c0.446 0.454 1.165-0.257 0.707-0.707z"></path>
</symbol>
<symbol id="icon-plant-grow" viewBox="0 0 32 32">
<path d="M19.21 4.628c0.159-0.12 0.358-0.172 0.556-0.145 0.098 0.014 0.192 0.046 0.276 0.096s0.159 0.116 0.219 0.194c0.059 0.079 0.103 0.168 0.128 0.263s0.031 0.195 0.017 0.292-0.046 0.192-0.096 0.276c-0.050 0.085-0.116 0.159-0.195 0.219-1.111 0.916-2.057 2.016-2.796 3.252-0.075 0.127-0.146 0.254-0.215 0.381 0.548-0.064 1.092-0.155 1.63-0.273 1.579-0.356 2.818-1.335 3.313-2.619l1.708-4.431c-2.648 0.127-4.893 1.033-6.208 2.517-0.821 0.926-1.256 2.035-1.301 3.306 1.315-2.069 2.894-3.277 2.964-3.33z"></path>
<path d="M18.459 15.644c1.514 0.128 2.834-0.269 3.928-1.182 1.522-1.272 2.492-3.489 2.697-6.132l-4.479 1.579c-1.298 0.458-2.312 1.667-2.714 3.235-0.095 0.372-0.18 0.781-0.256 1.222l3.325-3.040c0.073-0.067 0.158-0.119 0.25-0.153s0.191-0.049 0.29-0.045c0.099 0.004 0.195 0.028 0.285 0.070s0.17 0.101 0.236 0.174c0.067 0.073 0.118 0.158 0.152 0.251s0.049 0.191 0.044 0.29c-0.005 0.099-0.029 0.195-0.071 0.285s-0.101 0.169-0.174 0.236l-3.512 3.212z"></path>
<path d="M12.777 13.983c-0.285-0.533-0.6-1.048-0.945-1.544l-1.855-2.666c-0.114-0.163-0.158-0.365-0.123-0.561s0.147-0.37 0.31-0.483c0.163-0.114 0.365-0.158 0.561-0.123s0.37 0.147 0.483 0.31l1.855 2.666c0.209 0.301 0.41 0.611 0.601 0.928-0.232-3.957-2.801-7.184-6.077-7.547l0.455 3.617c0.232 2.127 1.608 4.537 4.735 5.403z"></path>
<path d="M27.34 27.987c-0.097-0.084-0.211-0.146-0.335-0.182s-0.253-0.045-0.38-0.026c-4.227 0.617-10.519 0.232-14.346-2.073-0.348-0.21-0.652-0.391-0.858-0.51-0.634-0.368-1.302-0.674-1.994-0.915-0.83-0.289-1.704-0.437-2.583-0.436-0.379 0-1.037 0.028-1.67 0.092-0.221 0.022-0.426 0.126-0.574 0.291s-0.229 0.381-0.226 0.603v0.018c-0.003 0.124 0.020 0.247 0.068 0.361s0.12 0.217 0.21 0.301c0.089 0.085 0.195 0.149 0.311 0.189s0.239 0.055 0.361 0.043c0.522-0.046 1.101-0.074 1.513-0.074 0.95-0.001 1.894 0.159 2.791 0.471 0.73 0.254 1.434 0.577 2.103 0.965 0.208 0.121 0.516 0.304 0.868 0.515 3.666 2.208 9.971 2.644 14.305 1.932 0.168-0.029 0.324-0.105 0.45-0.219s0.217-0.262 0.263-0.426c0.046-0.164 0.044-0.337-0.006-0.5s-0.144-0.308-0.272-0.42v0zM13.076 27.176c-0.040 0.073-0.107 0.127-0.187 0.15s-0.165 0.014-0.238-0.026c-0.128-0.070-0.254-0.142-0.374-0.215-0.071-0.043-0.122-0.112-0.142-0.192s-0.007-0.166 0.036-0.237c0.043-0.071 0.112-0.122 0.192-0.142s0.166-0.007 0.237 0.036c0.113 0.068 0.231 0.136 0.352 0.202 0.073 0.040 0.127 0.107 0.15 0.186s0.014 0.165-0.026 0.238zM21.147 29.381c-0.006 0-0.012 0-0.018-0-2.754-0.152-5.263-0.669-7.254-1.497-0.038-0.016-0.073-0.038-0.102-0.068s-0.053-0.064-0.068-0.102-0.024-0.079-0.024-0.12c0-0.041 0.008-0.082 0.024-0.12s0.039-0.073 0.068-0.102 0.064-0.052 0.102-0.068c0.038-0.016 0.079-0.023 0.12-0.023s0.082 0.009 0.12 0.025c1.927 0.801 4.364 1.303 7.049 1.45 0.081 0.004 0.158 0.040 0.213 0.1s0.085 0.139 0.083 0.22c-0.002 0.081-0.036 0.159-0.095 0.216s-0.137 0.089-0.218 0.088l-0-0z"></path>
<path d="M15.605 18c-0.046 0.128-0.088 0.256-0.126 0.384-0.489-2.38-1.444-4.639-2.775-6.551l-1.855-2.666c-0.047-0.068-0.12-0.114-0.201-0.129s-0.166 0.004-0.234 0.051-0.114 0.12-0.129 0.201c-0.015 0.082 0.004 0.166 0.051 0.234l1.855 2.666c1.345 1.933 2.294 4.235 2.742 6.657 0.105 0.565 0.191 1.121 0.258 1.661 0.010 0.255 0.038 0.509 0.084 0.76h0.002c0.001 0.004 0.002 0.007 0.003 0.010-0.37 0.127-0.732 0.268-1.081 0.424-0.183 0.081-0.366 0.166-0.543 0.252-1.773 0.86-3.152 1.111-4.749 1.402-0.095 0.017-0.19 0.035-0.286 0.052 0.342 0.073 0.679 0.168 1.010 0.283 0.73 0.254 1.434 0.577 2.103 0.964 0.208 0.121 0.516 0.304 0.868 0.515 2.51 1.512 7.717 2.768 13.384 2.064l-1.665-3.503c-0.217-0.46-0.488-0.893-0.808-1.288-0.663-0.813-1.401-1.264-2.543-1.556l-0.154-0.031c-0.66-0.131-1.332-0.197-2.005-0.197-0.88-0.001-1.757 0.112-2.608 0.337-0.106 0.028-0.212 0.058-0.317 0.089-0.020-0.208-0.044-0.419-0.070-0.632-0.025-0.716 0.101-1.467 0.379-2.243 0.368-1.042 0.984-1.979 1.796-2.729l3.687-3.371c0.061-0.056 0.097-0.134 0.101-0.217s-0.026-0.164-0.082-0.225c-0.056-0.061-0.134-0.098-0.216-0.101s-0.164 0.025-0.225 0.081l-3.687 3.372c-0.571 0.525-1.054 1.138-1.431 1.815-0.521-1.401-0.697-2.816-0.523-4.215 0.158-1.274 0.605-2.541 1.329-3.766 1.242-2.101 2.889-3.363 2.909-3.379 0.065-0.050 0.108-0.124 0.119-0.206s-0.011-0.164-0.060-0.23c-0.050-0.066-0.123-0.109-0.205-0.121s-0.165 0.009-0.231 0.059c-0.071 0.054-1.751 1.338-3.059 3.541-1.209 2.036-2.297 5.258-0.65 9.072-0.057 0.135-0.111 0.272-0.16 0.41zM13.541 24.438c-0.152 0-0.3-0.045-0.425-0.129s-0.224-0.204-0.282-0.344-0.073-0.294-0.044-0.442c0.030-0.149 0.103-0.285 0.21-0.392s0.244-0.18 0.392-0.21c0.149-0.030 0.303-0.014 0.443 0.044s0.26 0.156 0.344 0.282 0.129 0.274 0.129 0.425c-0 0.203-0.081 0.398-0.225 0.541s-0.338 0.224-0.541 0.225zM23.666 25.454c0.095 0 0.187 0.028 0.266 0.081s0.14 0.128 0.177 0.215 0.046 0.184 0.027 0.277c-0.018 0.093-0.064 0.178-0.131 0.245s-0.152 0.113-0.245 0.131c-0.093 0.018-0.189 0.009-0.277-0.027s-0.162-0.098-0.215-0.176c-0.053-0.079-0.081-0.171-0.081-0.266 0-0.127 0.051-0.249 0.14-0.339s0.212-0.14 0.339-0.141h-0zM21.368 22.91c0.13 0 0.257 0.039 0.365 0.111s0.192 0.175 0.242 0.295c0.050 0.12 0.063 0.252 0.037 0.379s-0.088 0.244-0.18 0.336c-0.092 0.092-0.209 0.154-0.336 0.18s-0.259 0.012-0.379-0.037c-0.12-0.050-0.222-0.134-0.295-0.242s-0.111-0.235-0.111-0.365c0-0.174 0.069-0.341 0.192-0.464s0.29-0.192 0.464-0.192h-0zM19.113 25.058c0.146 0 0.288 0.043 0.41 0.124s0.216 0.196 0.272 0.331c0.056 0.135 0.070 0.283 0.042 0.426s-0.099 0.274-0.202 0.378c-0.103 0.103-0.235 0.173-0.378 0.202s-0.291 0.014-0.426-0.042c-0.135-0.056-0.25-0.15-0.331-0.272s-0.124-0.264-0.124-0.41c0-0.196 0.078-0.383 0.216-0.521s0.326-0.216 0.521-0.216zM17.784 21.474c0.128-0 0.253 0.038 0.36 0.109s0.19 0.172 0.239 0.291 0.062 0.249 0.037 0.374c-0.025 0.126-0.087 0.241-0.177 0.332s-0.206 0.152-0.332 0.177c-0.126 0.025-0.256 0.012-0.374-0.037s-0.22-0.132-0.291-0.239c-0.071-0.107-0.109-0.232-0.109-0.36 0-0.172 0.068-0.336 0.19-0.458s0.286-0.19 0.458-0.19zM16.496 23.683c0.087 0 0.173 0.026 0.246 0.075s0.129 0.118 0.163 0.198c0.033 0.081 0.042 0.17 0.025 0.255s-0.059 0.164-0.121 0.226c-0.062 0.062-0.141 0.104-0.226 0.121s-0.175 0.008-0.255-0.025-0.15-0.090-0.198-0.163c-0.049-0.073-0.074-0.158-0.074-0.245 0-0.117 0.047-0.23 0.13-0.312s0.195-0.129 0.312-0.13z"></path>
</symbol>
<symbol id="icon-tree-plant" viewBox="0 0 32 32">
<path d="M24.657 31c-0.235-0.163-0.749-0.511-1.461-0.96l1.949-1.226c0.010-0.007 0.020-0.013 0.030-0.021 0.733-0.539 1.299-1.274 1.634-2.12l1.198-3.022c0.049-0.123 0.047-0.261-0.006-0.383s-0.151-0.218-0.275-0.266l-1.394-0.553 1.658-4.183c0.061 0.024 0.126 0.036 0.192 0.035s0.131-0.015 0.191-0.041 0.115-0.064 0.161-0.111c0.046-0.047 0.082-0.103 0.106-0.164l2.211-5.578c0.049-0.123 0.047-0.261-0.006-0.383s-0.151-0.218-0.275-0.266l-2.324-0.921c-0.123-0.049-0.261-0.047-0.383 0.006s-0.218 0.151-0.266 0.275l-2.211 5.578c-0.049 0.123-0.047 0.261 0.006 0.383s0.151 0.218 0.275 0.266l-1.658 4.183-1.394-0.553c-0.123-0.049-0.261-0.047-0.383 0.006s-0.218 0.151-0.266 0.275l-1.123 2.834c-0.381 0.967-0.444 2.029-0.179 3.034l0.216 1.542c-2.614-1.454-6.070-3.045-8.878-3.184v-2.24l2.752-2.185c0.375 0.044 0.752 0.066 1.13 0.066 0.322 0 0.643-0.016 0.962-0.050 1.842-0.196 3.255-0.965 4.088-2.223 1.928-2.911 0.672-8.241 0.618-8.467-0.030-0.123-0.105-0.23-0.21-0.3s-0.233-0.097-0.358-0.076c-0.229 0.038-5.626 0.963-7.554 3.874-0.833 1.258-0.989 2.86-0.451 4.632 0.213 0.693 0.505 1.359 0.869 1.986l-1.847 1.467v-9.145c0.649-0.321 1.259-0.715 1.819-1.174 1.427-1.18 2.181-2.602 2.181-4.111 0-3.491-3.99-7.243-4.159-7.401-0.093-0.086-0.214-0.134-0.341-0.134s-0.248 0.048-0.341 0.134c-0.75 0.723-1.439 1.506-2.061 2.342-1.392 1.872-2.099 3.574-2.099 5.058 0 1.509 0.754 2.93 2.181 4.111 0.56 0.459 1.17 0.853 1.819 1.174v9.645l-1.847-1.466c0.364-0.627 0.656-1.293 0.869-1.986 0.538-1.772 0.382-3.374-0.451-4.632-1.928-2.911-7.325-3.836-7.554-3.874-0.125-0.021-0.253 0.007-0.358 0.076s-0.18 0.177-0.21 0.3c-0.054 0.225-1.31 5.556 0.618 8.467 0.833 1.258 2.247 2.027 4.088 2.223 0.32 0.034 0.641 0.050 0.963 0.050 0.378 0 0.755-0.022 1.13-0.066l2.752 2.185v1.757c-0.017 0.001-0.033 0.002-0.050 0.004-2.166 0.217-4.479 1.238-6.875 3.035-0.995 0.745-1.929 1.568-2.792 2.462h-1.283v1h32v-1h-7.343zM19.469 16.104l-1.799-0.111c-0.099-0.006-0.193-0.041-0.272-0.101s-0.138-0.141-0.17-0.235l-0.589-1.704 0.945-0.327 0.48 1.389 1.467 0.091-0.062 0.998zM15.984 14.943l0.582 2.044 2.125 0.013-0.006 1-2.5-0.015c-0.108-0.001-0.213-0.036-0.299-0.102s-0.149-0.157-0.178-0.261l-0.685-2.404 0.962-0.274zM3.472 15.605l1.467-0.091 0.481-1.389 0.945 0.327-0.59 1.704c-0.032 0.093-0.091 0.175-0.17 0.235s-0.173 0.095-0.272 0.101l-1.799 0.111-0.062-0.998zM4.318 18.5l-0.006-1 2.125-0.013 0.582-2.044 0.962 0.274-0.685 2.404c-0.030 0.104-0.092 0.196-0.178 0.261s-0.191 0.101-0.299 0.102l-2.5 0.016zM9.8 7.1l1.7 1.275 1.7-1.275 0.6 0.8-2 1.5c-0.087 0.065-0.192 0.1-0.3 0.1s-0.213-0.035-0.3-0.1l-2-1.5 0.6-0.8zM9.723 5.916l0.555-0.832 1.223 0.815 1.223-0.815 0.555 0.832-1.5 1c-0.082 0.055-0.179 0.084-0.277 0.084s-0.195-0.029-0.277-0.084l-1.5-1zM6 30c0-0.464 0.184-0.909 0.513-1.237s0.773-0.513 1.237-0.513c0.464 0 0.909 0.184 1.237 0.513s0.513 0.773 0.513 1.237h-1c0-0.199-0.079-0.39-0.22-0.53s-0.331-0.22-0.53-0.22-0.39 0.079-0.53 0.22c-0.141 0.141-0.22 0.331-0.22 0.53h-1zM10 29.25c0-0.464 0.184-0.909 0.513-1.237s0.773-0.513 1.237-0.513c0.464 0 0.909 0.184 1.237 0.513s0.513 0.773 0.513 1.237h-1c0-0.199-0.079-0.39-0.22-0.53s-0.331-0.22-0.53-0.22-0.39 0.079-0.53 0.22c-0.141 0.141-0.22 0.331-0.22 0.53h-1zM17 30c0-0.199-0.079-0.39-0.22-0.53s-0.331-0.22-0.53-0.22-0.39 0.079-0.53 0.22c-0.141 0.141-0.22 0.331-0.22 0.53h-1c0-0.464 0.184-0.909 0.513-1.237s0.773-0.513 1.237-0.513c0.464 0 0.909 0.184 1.237 0.513s0.513 0.773 0.513 1.237h-1zM26.597 17.712l0.465 0.184-1.658 4.183-0.465-0.184 1.658-4.183zM21.772 24.457l0.939-2.369 4.183 1.658-1.014 2.558c-0.264 0.666-0.708 1.245-1.283 1.673l-2.324 1.462c-0.009 0.006-0.018 0.012-0.026 0.018-0.088-0.053-0.179-0.107-0.271-0.161l-0.328-2.341c-0.003-0.021-0.007-0.042-0.012-0.062-0.218-0.805-0.17-1.658 0.135-2.434h0z"></path>
<path d="M21.5 7.5c0.396 0 0.782-0.117 1.111-0.337s0.585-0.532 0.737-0.898c0.151-0.365 0.191-0.768 0.114-1.156s-0.268-0.744-0.547-1.024c-0.28-0.28-0.636-0.47-1.024-0.547s-0.79-0.038-1.156 0.114c-0.366 0.151-0.678 0.408-0.898 0.737s-0.337 0.716-0.337 1.111c0.001 0.53 0.211 1.039 0.586 1.414s0.883 0.586 1.414 0.587z"></path>
<path d="M0.727 5.273c0.063 0.063 0.143 0.109 0.23 0.131s0.178 0.021 0.264-0.005l1.569-0.46 1.569 0.46c0.086 0.025 0.177 0.027 0.264 0.005s0.166-0.067 0.23-0.131c0.063-0.063 0.109-0.143 0.131-0.23s0.021-0.178-0.005-0.264l-0.46-1.569 0.46-1.569c0.025-0.086 0.027-0.177 0.005-0.264s-0.067-0.166-0.131-0.23c-0.063-0.063-0.143-0.109-0.23-0.131s-0.178-0.021-0.264 0.005l-1.569 0.46-1.569-0.46c-0.086-0.025-0.177-0.027-0.264-0.005s-0.166 0.067-0.23 0.131c-0.063 0.063-0.109 0.143-0.131 0.23s-0.021 0.178 0.005 0.264l0.46 1.569-0.46 1.569c-0.025 0.086-0.027 0.177-0.005 0.264s0.067 0.166 0.131 0.23z"></path>
<path d="M17.5 23h-1v1h1v-1z"></path>
</symbol>
<symbol id="icon-water-irrigation" viewBox="0 0 32 32">
<path d="M30.209 8.267v-3.927c0-0.798-0.312-1.565-0.87-2.135l-1.052-1.053c-0.366-0.376-0.869-0.589-1.394-0.589h-0.005c-0.527-0-1.031 0.212-1.4 0.588l-1.579 1.596-0.792-0.693c-0.178-0.159-0.408-0.247-0.647-0.246-0.262 0.001-0.512 0.106-0.697 0.292l-0.094 0.094-0.316-0.319c-0.625-0.634-1.478-0.991-2.368-0.991s-1.743 0.357-2.368 0.991c-1.302 1.325-1.302 3.45 0 4.775l0.324 0.327-0.017 0.017c-0.387 0.395-0.387 1.028 0 1.423l7.833 7.922c0.094 0.096 0.223 0.15 0.358 0.15s0.264-0.054 0.358-0.15l6.083-6.148c0.101-0.104 0.155-0.243 0.15-0.388s-0.069-0.28-0.178-0.374l-1.33-1.162zM17.59 6.326l-0.316-0.319c-0.952-0.968-0.952-2.523 0-3.491 0.454-0.461 1.073-0.72 1.72-0.72s1.266 0.259 1.72 0.72l0.325 0.327-3.449 3.483zM29.298 7.464l-4.699-4.115 1.538-1.555c0.198-0.204 0.469-0.319 0.752-0.319 0.282 0.001 0.552 0.116 0.749 0.319l1.053 1.056c0.389 0.398 0.606 0.933 0.605 1.49l0.002 3.124z"></path>
<path d="M15.748 12.858v1.89h6.783l-2.652-2.676-4.131 0.787z"></path>
<path d="M12.172 11.29v5.523c-0.004 0.128 0.073 0.245 0.193 0.292 0.112 0.050 0.243 0.023 0.327-0.067l1.865-1.933v-2.464l-1.825-1.536c-0.065-0.076-0.159-0.122-0.259-0.127-0.037 0-0.074 0.008-0.108 0.022-0.119 0.046-0.196 0.162-0.193 0.29z"></path>
<path d="M9.191 15.94c-0.988 0-1.788 0.801-1.788 1.788v1.192c0 0.329 0.267 0.596 0.596 0.596s0.596-0.267 0.596-0.596v-1.192c0-0.329 0.267-0.596 0.596-0.596s0.596-0.267 0.596-0.596-0.267-0.596-0.596-0.596z"></path>
<path d="M9.191 13.555c-2.303 0.003-4.17 1.869-4.173 4.173v1.192c0 0.329 0.267 0.596 0.596 0.596s0.596-0.267 0.596-0.596v-1.192c0.002-1.645 1.335-2.978 2.98-2.98 0.329 0 0.596-0.267 0.596-0.596s-0.267-0.596-0.596-0.596z"></path>
<path d="M9.191 11.171c-3.619 0.004-6.553 2.937-6.557 6.557v1.192c0 0.329 0.267 0.596 0.596 0.596s0.596-0.267 0.596-0.596v-1.192c0.003-2.961 2.403-5.361 5.365-5.365 0.329 0 0.596-0.267 0.596-0.596s-0.267-0.596-0.596-0.596z"></path>
<path d="M20.517 30.841c0-0.329-0.267-0.596-0.596-0.596h-8.941v-1.58c0.117-0.148 0.243-0.289 0.376-0.423 0.126-0.135 0.259-0.262 0.399-0.381h3.398c2.303-0.003 4.17-1.869 4.173-4.173v-2.319c-1.101 0.736-2.395 1.128-3.72 1.127-2.045 0.001-3.798 1.463-4.167 3.475l-0.125 0.703c-0.333 0.26-0.644 0.547-0.93 0.858-0.286-0.311-0.597-0.598-0.93-0.858l-0.125-0.703c-0.368-2.012-2.121-3.474-4.167-3.475-1.324 0.002-2.619-0.39-3.72-1.127v2.319c0.003 2.303 1.869 4.17 4.173 4.173h3.398c0.282 0.244 0.541 0.514 0.775 0.805v1.58h-8.941c-0.329 0-0.596 0.267-0.596 0.596s0.267 0.596 0.596 0.596h19.075c0.329 0 0.596-0.267 0.596-0.596z"></path>
</symbol>
<symbol id="icon-arrow-down" viewBox="0 0 32 32">
<path d="M16 25.12c-0.574 0-1.147-0.219-1.584-0.656l-13.759-13.759c-0.875-0.875-0.875-2.294 0-3.169s2.294-0.875 3.169 0l12.174 12.175 12.174-12.175c0.875-0.875 2.294-0.875 3.169 0s0.876 2.294 0 3.169l-13.759 13.759c-0.437 0.437-1.011 0.656-1.584 0.656z"></path>
</symbol>
<symbol id="icon-arrow-right" viewBox="0 0 32 32">
<path d="M0 16c0 0.776 0.629 1.405 1.405 1.405h25.84l-8.864 8.856c-0.27 0.27-0.408 0.629-0.408 0.988s0.139 0.719 0.408 0.989c0.548 0.547 1.438 0.547 1.985 0l11.242-11.25c0.523-0.523 0.523-1.454 0-1.985l-11.25-11.242c-0.548-0.547-1.438-0.547-1.985 0s-0.547 1.438 0 1.985l8.856 8.856h-25.832c-0.776-0.008-1.397 0.621-1.397 1.397z"></path>
</symbol>
<symbol id="icon-email" viewBox="0 0 32 32">
<path d="M20.735 17.328l-2.68 2.689c-1.087 1.091-2.999 1.114-4.109 0l-2.68-2.689-9.626 9.657c0.358 0.166 0.753 0.265 1.173 0.265h26.375c0.42 0 0.815-0.099 1.173-0.265l-9.626-9.657z"></path>
<path d="M29.187 4.75h-26.375c-0.42 0-0.815 0.099-1.173 0.265l10.286 10.32c0.001 0.001 0.002 0.001 0.002 0.001s0.001 0.002 0.001 0.002l3.345 3.356c0.355 0.355 1.099 0.355 1.454 0l3.344-3.355c0 0 0.001-0.002 0.002-0.002s0.002-0.001 0.002-0.001l10.286-10.32c-0.358-0.166-0.753-0.264-1.173-0.264z"></path>
<path d="M0.299 6.326c-0.185 0.375-0.299 0.791-0.299 1.237v16.875c0 0.446 0.114 0.862 0.299 1.237l9.643-9.674-9.643-9.675z"></path>
<path d="M31.701 6.326l-9.643 9.675 9.642 9.674c0.185-0.375 0.299-0.791 0.299-1.237v-16.875c0-0.446-0.114-0.862-0.299-1.237z"></path>
</symbol>
<symbol id="icon-icon-plant1" viewBox="0 0 32 32">
<path d="M15.752 27.994c-0.017 0.718-0.683 1.239-1.35 1.118 0.915 0.166 3.046 0.399 4.244 0-0.694 0.104-1.328-0.422-1.345-1.124 0 0.038-0.469-3.684 1.405-7.127 1.604-2.944 2.497-2.637 4.376-3.35 2.409-0.916 4.883-1.859 6.581-3.915 2.772-3.361 2.039-7.966 1.802-9.211-2.976 4.249-5.991 3.043-9.028 4.978-3.087 1.968-4.464 5.071-4.167 8.394 3.059-5.318 6.923-2.977 10.913-8.295-0.97 1.601-2.298 2.994-3.952 3.986-2.375 1.447-3.522 1.025-7.121 6.223-0.661 0.954-1.196 1.996-1.582 3.087-0.447-1.261-1.091-2.473-1.907-3.536-1.637-2.122-2.359-3.323-3.792-4.348-1.962-1.415-5.302-1.957-7.997-6.42 4.498 6.003 8.714 3.262 12.142 9.233 0.342-3.783-1.268-7.188-4.635-9.337-3.379-2.155-6.73-0.811-10.042-5.543-0.265 1.387-1.080 6.513 2.006 10.253 1.884 2.284 4.622 3.326 7.292 4.343l0.027 0.010c1.284 0.488 4.586 0.636 5.875 6.486 0.353 1.623 0.292 2.56 0.254 4.096z"></path>
</symbol>
<symbol id="icon-location" viewBox="0 0 32 32">
<path d="M16 0c-5.623 0-10.313 4.529-10.313 10.313 0 2.2 0.661 4.162 1.93 6l7.593 11.849c0.368 0.576 1.211 0.575 1.579 0l7.626-11.889c1.241-1.755 1.897-3.816 1.897-5.96 0-5.686-4.626-10.313-10.312-10.313zM16 15c-2.585 0-4.688-2.103-4.688-4.688s2.103-4.688 4.688-4.688 4.688 2.103 4.688 4.688c0 2.585-2.103 4.688-4.688 4.688z"></path>
<path stroke-linejoin="miter" stroke-linecap="butt" stroke-miterlimit="4" stroke-width="0.64" d="M18.878 29.097l0-0 4.599-7.189c1.957 0.472 3.52 1.12 4.596 1.884 1.118 0.793 1.67 1.675 1.67 2.584 0 0.796-0.391 1.523-1.131 2.181-0.743 0.661-1.82 1.233-3.131 1.7-2.62 0.934-6.097 1.424-9.48 1.424s-6.86-0.49-9.48-1.424c-1.311-0.467-2.388-1.039-3.131-1.7-0.74-0.658-1.131-1.386-1.131-2.181 0-0.908 0.551-1.791 1.668-2.583 1.075-0.763 2.636-1.411 4.59-1.883l4.606 7.189c1.342 2.093 4.408 2.1 5.756-0.002z"></path>
</symbol>
<symbol id="icon-phone" viewBox="0 0 32 32">
<path d="M17.814 9.649c0.501 0 0.907-0.406 0.907-0.907s-0.406-0.907-0.907-0.907c-0.501 0-0.907 0.406-0.907 0.907s0.406 0.907 0.907 0.907z"></path>
<path d="M21.444 9.649c0.501 0 0.907-0.406 0.907-0.907s-0.406-0.907-0.907-0.907c-0.501 0-0.907 0.406-0.907 0.907s0.406 0.907 0.907 0.907z"></path>
<path d="M25.073 9.649c0.501 0 0.907-0.406 0.907-0.907s-0.406-0.907-0.907-0.907c-0.501 0-0.907 0.406-0.907 0.907s0.406 0.907 0.907 0.907z"></path>
<path d="M20.912 29.609c1.494 0 2.709-1.221 2.709-2.722v-3.629c0-0.39-0.25-0.737-0.62-0.861l-5.431-1.814c-0.266-0.089-0.558-0.050-0.791 0.106l-2.309 1.54c-2.479-1.176-5.408-4.079-6.573-6.514l1.539-2.309c0.155-0.233 0.194-0.525 0.106-0.791l-1.814-5.431c-0.124-0.37-0.47-0.62-0.861-0.62h-3.629c-1.501 0-2.722 1.215-2.722 2.709 0 5.013 2.279 10.157 6.253 14.115 3.97 3.953 9.125 6.221 14.143 6.221zM3.238 8.379h2.976l1.467 4.39-1.568 2.352c-0.166 0.249-0.198 0.563-0.087 0.84 0.603 1.508 1.811 3.205 3.4 4.777 1.579 1.562 3.283 2.756 4.8 3.362 0.277 0.111 0.592 0.078 0.84-0.087l2.352-1.568 4.39 1.467v2.976c0 0.509-0.393 0.907-0.894 0.907-9.551 0-18.581-9.001-18.581-18.521 0-0.502 0.399-0.894 0.907-0.894z"></path>
<path d="M17.467 18.653c0.339 0.14 0.729 0.063 0.989-0.197l3.363-3.363h3.253c3.535 0 6.411-2.849 6.411-6.351s-2.876-6.351-6.411-6.351h-7.258c-3.502 0-6.351 2.849-6.351 6.351 0 3.194 2.37 5.845 5.444 6.286v2.786c0 0.367 0.221 0.698 0.56 0.838zM13.278 8.742c0-2.501 2.035-4.536 4.536-4.536h7.258c2.535 0 4.597 2.035 4.597 4.536s-2.062 4.536-4.597 4.536h-3.629c-0.241 0-0.471 0.096-0.641 0.266l-2.080 2.080v-1.439c0-0.501-0.406-0.907-0.907-0.907-2.501 0-4.536-2.035-4.536-4.536z"></path>
</symbol>
<symbol id="icon-phone-call" viewBox="0 0 32 32">
<path d="M15.999 0.001c-8.822 0-15.999 7.177-15.999 15.999s7.177 15.999 15.999 15.999c3.557 0 6.925-1.143 9.772-3.333 1.131-0.992 1.111-2.408 0.588-3.37-0.331-0.609-0.835-1.027-1.42-1.232l0.268-0.3c0.4-0.449 0.576-1.048 0.481-1.641-0.093-0.593-0.445-1.109-0.964-1.415l-3.521-2.061c-0.799-0.467-1.889-0.295-2.504 0.396l-0.781 0.879c-0.128 0.144-0.305 0.224-0.497 0.224-0.228 0-0.431-0.109-0.556-0.299l-4.292-6.476c-0.109-0.164-0.139-0.36-0.085-0.549 0.053-0.191 0.181-0.34 0.361-0.423l1.228-0.571c0.863-0.399 1.326-1.36 1.104-2.283l-0.956-3.965c-0.285-1.185-1.669-1.864-2.785-1.345l-1.096 0.508c-1.62 0.752-2.813 2.172-3.274 3.897l-0.2 0.752c-0.361 1.353-0.236 2.798 0.353 4.069l0.985 2.125c1.445 3.118 3.418 5.923 5.864 8.339l0.813 0.803c1.208 1.193 2.806 1.881 4.504 1.936l0.22 0.004c1.469 0 2.885-0.487 4.041-1.357 0.023-0.004 0.045 0.001 0.069-0.005 0.907-0.253 1.355 0.416 1.469 0.627 0.269 0.499 0.283 1.227-0.261 1.706-2.578 1.981-5.665 3.029-8.926 3.029-8.086 0-14.666-6.579-14.666-14.665s6.58-14.665 14.666-14.665c8.086 0 14.665 6.579 14.665 14.665 0 0.368 0.299 0.667 0.667 0.667s0.667-0.299 0.667-0.667c-0.003-8.825-7.181-16.001-16.001-16.001z"></path>
</symbol>
<symbol id="icon-mission" viewBox="0 0 32 32">
<path d="M13.587 24.579l-0.053-0.92c-0.001-0.010-0.002-0.020-0.003-0.031-0.126-0.905-0.499-1.759-1.080-2.465s-1.345-1.238-2.209-1.536l-0.299-0.104c-0.414-0.145-0.791-0.381-1.101-0.691l-1.453-1.453-0.497-1.683c-0.119-0.442-0.369-0.837-0.718-1.133s-0.778-0.48-1.233-0.527l-0.082-0.272c-0.001-0.003-0.002-0.006-0.003-0.009-0.232-0.708-1.002-1.164-1.787-1.112l-0.025-0.082c-0.15-0.503-0.487-0.929-0.943-1.189s-0.994-0.334-1.503-0.207c-0.093 0.023-0.173 0.081-0.225 0.161s-0.071 0.178-0.053 0.271l1.592 8.568c0.003 0.017 0.008 0.035 0.013 0.052 0.374 1.099 1.090 2.050 2.042 2.713l3.477 2.396c0.006 0.005 0.013 0.009 0.020 0.013 0.246 0.147 0.429 0.378 0.515 0.651l0.264 3.572c0.005 0.074 0.032 0.144 0.078 0.202s0.107 0.102 0.177 0.126l0.072 0.024c1.564 0.529 3.256 0.541 4.827 0.034l0.174-0.056c0.076-0.024 0.142-0.072 0.188-0.136s0.072-0.142 0.072-0.221v-1.999c0-0.813-0.071-1.691-0.225-2.765-0.009-0.064-0.015-0.129-0.019-0.193zM6.167 15.896c0.001 0.003 0.002 0.007 0.003 0.010l0.166 0.562c-0.233-0.128-0.485-0.217-0.747-0.262l-0.405-1.353c0.238 0.079 0.452 0.215 0.624 0.397s0.295 0.404 0.36 0.646zM4.141 13.986l0.663 2.212c-0.213 0.032-0.421 0.092-0.619 0.178l-0.891-2.977c0.366 0.036 0.732 0.241 0.847 0.586zM13.081 29.262c-1.339 0.414-2.771 0.412-4.109-0.004l-0.249-3.362c-0.002-0.025-0.006-0.050-0.013-0.074-0.131-0.467-0.435-0.867-0.85-1.118l-3.467-2.389c-0.813-0.566-1.426-1.376-1.75-2.312l-1.514-8.147c0.271 0.008 0.532 0.102 0.746 0.267s0.372 0.394 0.449 0.653l1.207 4.026c-0.027 0.025-0.054 0.051-0.080 0.077-0.036 0.036-0.064 0.079-0.083 0.126s-0.028 0.097-0.027 0.148c0.001 0.051 0.013 0.101 0.034 0.147s0.051 0.087 0.089 0.122l1.742 1.591c0.507 0.463 0.971 0.972 1.386 1.52 0.030 0.040 0.067 0.073 0.109 0.098s0.090 0.042 0.139 0.049c0.049 0.007 0.099 0.004 0.147-0.008s0.093-0.034 0.132-0.064c0.039-0.030 0.073-0.067 0.098-0.11s0.041-0.090 0.048-0.139c0.007-0.049 0.003-0.099-0.009-0.147s-0.035-0.093-0.065-0.132c-0.442-0.584-0.937-1.127-1.478-1.621l-1.418-1.295c0.322-0.196 0.7-0.278 1.074-0.234s0.722 0.213 0.989 0.479l1.954 1.954c0.391 0.39 0.864 0.687 1.385 0.869l0.299 0.104c0.731 0.253 1.379 0.702 1.871 1.299s0.811 1.318 0.92 2.084l0.053 0.904c0.005 0.085 0.014 0.171 0.026 0.256 0.148 1.038 0.217 1.883 0.217 2.659l0 1.724z"></path>
<path d="M31.403 11.167c-0.509-0.127-1.047-0.053-1.503 0.207s-0.793 0.686-0.943 1.188l-0.025 0.083c-0.785-0.052-1.555 0.404-1.787 1.112-0.001 0.003-0.002 0.006-0.003 0.009l-0.081 0.272c-0.455 0.047-0.885 0.23-1.233 0.527s-0.599 0.691-0.718 1.133l-0.497 1.683-1.453 1.453c-0.311 0.31-0.687 0.546-1.101 0.691l-0.299 0.104c-0.864 0.298-1.629 0.83-2.209 1.536s-0.954 1.559-1.080 2.465c-0.001 0.010-0.002 0.020-0.003 0.031l-0.053 0.92c-0.004 0.064-0.010 0.129-0.019 0.193-0.153 1.074-0.225 1.952-0.225 2.765v1.998c0 0.078 0.025 0.155 0.070 0.218s0.11 0.111 0.184 0.137c1.587 0.538 3.305 0.55 4.899 0.034l0.098-0.032c0.069-0.023 0.131-0.065 0.176-0.122s0.074-0.126 0.081-0.199l0.343-3.576c0.085-0.275 0.269-0.508 0.516-0.655 0.007-0.004 0.014-0.009 0.020-0.013l3.478-2.396c0.952-0.663 1.668-1.614 2.042-2.713 0.006-0.017 0.010-0.034 0.013-0.051l1.592-8.568c0.017-0.094-0.002-0.191-0.053-0.271s-0.132-0.138-0.225-0.161zM27.859 13.985c0.115-0.345 0.481-0.55 0.847-0.586l-0.86 2.876-0.031 0.101c-0.197-0.087-0.406-0.146-0.619-0.178l0.663-2.213zM25.83 15.905c0.001-0.003 0.002-0.006 0.003-0.010 0.065-0.242 0.188-0.464 0.36-0.646s0.386-0.319 0.623-0.397l-0.405 1.353c-0.262 0.046-0.514 0.135-0.747 0.262l0.166-0.563zM29.357 20.003c-0.324 0.936-0.936 1.745-1.749 2.311l-3.468 2.389c-0.415 0.251-0.719 0.651-0.85 1.118-0.006 0.022-0.010 0.044-0.013 0.066l-0.323 3.366c-1.315 0.397-2.718 0.399-4.035 0.008v-1.725c0-0.776 0.069-1.621 0.217-2.659 0.012-0.085 0.021-0.171 0.026-0.256l0.052-0.904c0.109-0.766 0.427-1.487 0.92-2.084s1.14-1.046 1.871-1.299l0.299-0.104c0.521-0.182 0.994-0.479 1.385-0.869l1.954-1.954c0.267-0.266 0.615-0.435 0.989-0.479s0.752 0.038 1.074 0.234l-1.418 1.295c-0.541 0.494-1.036 1.037-1.478 1.621-0.030 0.039-0.052 0.084-0.065 0.132s-0.016 0.098-0.009 0.147c0.007 0.049 0.023 0.096 0.048 0.139s0.058 0.080 0.098 0.11 0.084 0.052 0.132 0.064c0.048 0.012 0.098 0.015 0.147 0.008s0.096-0.023 0.139-0.049c0.043-0.025 0.080-0.059 0.109-0.098 0.415-0.548 0.879-1.057 1.386-1.52l1.742-1.591c0.037-0.034 0.067-0.076 0.088-0.122s0.032-0.096 0.034-0.147c0.001-0.051-0.008-0.101-0.027-0.148s-0.047-0.090-0.083-0.126c-0.026-0.026-0.053-0.052-0.080-0.077l1.207-4.026c0.077-0.26 0.234-0.488 0.449-0.653s0.476-0.259 0.746-0.267l-1.514 8.147z"></path>
<path d="M21.308 8.917c1.102-0.904 1.771-2.161 1.932-3.635l0.401-3.179c0.007-0.054 0.002-0.109-0.015-0.161s-0.044-0.1-0.081-0.14c-0.037-0.040-0.082-0.072-0.133-0.093s-0.105-0.030-0.159-0.028c-3.295 0.144-5.879 3.455-5.761 7.381l0.025 0.829c-0.387 0.772-0.712 1.574-0.971 2.397-0.209-0.484-0.481-0.939-0.807-1.353-0.074-0.759-0.202-1.511-0.383-2.251-0.373-1.451-1.332-2.576-2.567-3.009l-3.934-1.382c-0.058-0.020-0.12-0.026-0.18-0.017s-0.118 0.033-0.167 0.070c-0.049 0.037-0.089 0.085-0.115 0.14s-0.039 0.116-0.036 0.178c0.104 2.437 0.977 4.514 2.394 5.698 0.877 0.733 1.946 1.11 3.127 1.11 0.262-0 0.523-0.018 0.782-0.053l0.483-0.030c0.364 0.46 0.65 0.976 0.847 1.528 0.255 0.71 0.346 1.393 0.273 2.033h-3.916c-0.053 0-0.106 0.011-0.154 0.033s-0.092 0.054-0.127 0.093-0.062 0.086-0.077 0.137c-0.016 0.051-0.021 0.104-0.014 0.157l0.52 4.26c0.011 0.091 0.055 0.175 0.124 0.235s0.157 0.094 0.249 0.094h6.269c0.092 0 0.18-0.034 0.249-0.094s0.113-0.144 0.124-0.235l0.52-4.26c0.006-0.053 0.002-0.106-0.014-0.157s-0.042-0.097-0.077-0.137-0.078-0.072-0.127-0.093c-0.048-0.022-0.101-0.033-0.154-0.033h-2.639c0.039-0.422 0.022-0.848-0.051-1.266 0.225-1.161 0.675-2.344 1.19-3.392 1.181-0.187 2.297-0.672 3.153-1.374zM22.839 2.474l-0.344 2.724c-0.271 2.481-2.080 3.781-3.889 4.237 0.269-0.479 0.543-0.912 0.801-1.282l1.483-2.123c0.056-0.082 0.078-0.182 0.061-0.28s-0.073-0.184-0.154-0.241c-0.081-0.057-0.182-0.079-0.279-0.062s-0.185 0.072-0.242 0.153l-1.483 2.123c-0.178 0.255-0.364 0.54-0.55 0.848 0.092-3.128 2.053-5.723 4.597-6.099l0 0zM12.146 7.556c-0.073-0.067-0.171-0.102-0.27-0.097s-0.193 0.049-0.26 0.122c-0.067 0.074-0.102 0.171-0.097 0.27s0.049 0.193 0.122 0.26l2.827 2.575c-1.256 0.148-2.345-0.153-3.237-0.899-1.149-0.96-1.895-2.615-2.087-4.596l3.396 1.193c0.998 0.35 1.779 1.281 2.089 2.488 0.089 0.348 0.168 0.737 0.235 1.161l-2.718-2.476zM19.231 15.7l-0.429 3.51h-5.605l-0.429-3.51h6.463z"></path>
</symbol>
<symbol id="icon-clients-trust" viewBox="0 0 32 32">
<path d="M11.717 26.767c-0.258 0-0.494-0.164-0.585-0.405s-0.021-0.521 0.172-0.69c0.2-0.175 0.494-0.202 0.725-0.071 0.223 0.126 0.347 0.391 0.304 0.643-0.050 0.297-0.314 0.523-0.616 0.523z"></path>
<path d="M31.164 19.858c-0.887-0.817-2.182-0.909-3.159-0.292-1.281-0.966-3.010-0.857-4.189 0.322l-2.877 2.877c-0.129-0.139-0.277-0.261-0.441-0.362-0.349-0.215-0.752-0.329-1.167-0.329h-5.588c-1.969-1.518-4.66-1.818-6.92-0.755l-1.592 0.749h-4.606c-0.345 0-0.625 0.28-0.625 0.625v7.309c0 0.345 0.28 0.625 0.625 0.625h4.731c0.345 0 0.625-0.28 0.625-0.625v-1.123l5.513 2.708c0.086 0.042 0.18 0.064 0.276 0.064l11.612-0c0.167 0 0.327-0.067 0.445-0.186 0.046-0.047 4.631-4.689 7.523-7.954 0.936-1.057 0.853-2.695-0.185-3.651zM4.731 29.376h-3.481v-6.058h3.481v6.058zM24.699 20.772c0.67-0.67 1.593-0.784 2.35-0.342l-5.087 5.086-0.838 0c0.311-0.451 0.445-1.003 0.376-1.546l3.199-3.199zM30.413 22.681c-2.542 2.869-6.412 6.822-7.294 7.718l-11.205 0-5.934-2.915v-4.389l1.374-0.646c1.893-0.891 4.158-0.604 5.77 0.731 0.112 0.093 0.253 0.144 0.399 0.144h5.807c0.186 0 0.357 0.048 0.511 0.142 0.218 0.135 0.364 0.352 0.411 0.612 0.049 0.273-0.020 0.555-0.19 0.774l-0.517 0.665h-5.015c-0.345 0-0.625 0.28-0.625 0.625s0.28 0.625 0.625 0.625l7.691-0c0.166 0 0.325-0.066 0.442-0.183l5.768-5.768c0.518-0.518 1.346-0.535 1.884-0.038 0.541 0.499 0.585 1.352 0.097 1.903z"></path>
<path d="M20.333 8.418c0.925-0.85 1.505-2.069 1.505-3.421 0-2.562-2.084-4.647-4.647-4.647s-4.647 2.085-4.647 4.647c0 1.352 0.58 2.571 1.505 3.421-1.771 0.207-3.15 1.717-3.15 3.543v5.833c0 0.345 0.28 0.625 0.625 0.625h11.334c0.345 0 0.625-0.28 0.625-0.625v-5.833c0-1.826-1.379-3.336-3.15-3.543zM13.795 4.998c0-1.873 1.524-3.397 3.396-3.397s3.397 1.524 3.397 3.397c0 1.873-1.524 3.397-3.397 3.397s-3.396-1.524-3.396-3.396zM22.233 17.169h-10.084v-5.208c0-1.277 1.039-2.317 2.317-2.317h5.45c1.277 0 2.317 1.039 2.317 2.317v5.208z"></path>
</symbol>
<symbol id="icon-mission1" viewBox="0 0 32 32">
<path d="M13.587 24.579l-0.053-0.92c-0.001-0.010-0.002-0.020-0.003-0.031-0.126-0.905-0.499-1.759-1.080-2.465s-1.345-1.238-2.209-1.536l-0.299-0.104c-0.414-0.145-0.791-0.381-1.101-0.691l-1.453-1.453-0.497-1.683c-0.119-0.442-0.369-0.837-0.718-1.133s-0.778-0.48-1.233-0.527l-0.082-0.272c-0.001-0.003-0.002-0.006-0.003-0.009-0.232-0.708-1.002-1.164-1.787-1.112l-0.025-0.082c-0.15-0.503-0.487-0.929-0.943-1.189s-0.994-0.334-1.503-0.207c-0.093 0.023-0.173 0.081-0.225 0.161s-0.071 0.178-0.053 0.271l1.592 8.568c0.003 0.017 0.008 0.035 0.013 0.052 0.374 1.099 1.090 2.050 2.042 2.713l3.477 2.396c0.006 0.005 0.013 0.009 0.020 0.013 0.246 0.147 0.429 0.378 0.515 0.651l0.264 3.572c0.005 0.074 0.032 0.144 0.078 0.202s0.107 0.102 0.177 0.126l0.072 0.024c1.564 0.529 3.256 0.541 4.827 0.034l0.174-0.056c0.076-0.024 0.142-0.072 0.188-0.136s0.072-0.142 0.072-0.221v-1.999c0-0.813-0.071-1.691-0.225-2.765-0.009-0.064-0.015-0.129-0.019-0.193zM6.167 15.896c0.001 0.003 0.002 0.007 0.003 0.010l0.166 0.562c-0.233-0.128-0.485-0.217-0.747-0.262l-0.405-1.353c0.238 0.079 0.452 0.215 0.624 0.397s0.295 0.404 0.36 0.646zM4.141 13.986l0.663 2.212c-0.213 0.032-0.421 0.092-0.619 0.178l-0.891-2.977c0.366 0.036 0.732 0.241 0.847 0.586zM13.081 29.262c-1.339 0.414-2.771 0.412-4.109-0.004l-0.249-3.362c-0.002-0.025-0.006-0.050-0.013-0.074-0.131-0.467-0.435-0.867-0.85-1.118l-3.467-2.389c-0.813-0.566-1.426-1.376-1.75-2.312l-1.514-8.147c0.271 0.008 0.532 0.102 0.746 0.267s0.372 0.394 0.449 0.653l1.207 4.026c-0.027 0.025-0.054 0.051-0.080 0.077-0.036 0.036-0.064 0.079-0.083 0.126s-0.028 0.097-0.027 0.148c0.001 0.051 0.013 0.101 0.034 0.147s0.051 0.087 0.089 0.122l1.742 1.591c0.507 0.463 0.971 0.972 1.386 1.52 0.030 0.040 0.067 0.073 0.109 0.098s0.090 0.042 0.139 0.049c0.049 0.007 0.099 0.004 0.147-0.008s0.093-0.034 0.132-0.064c0.039-0.030 0.073-0.067 0.098-0.11s0.041-0.090 0.048-0.139c0.007-0.049 0.003-0.099-0.009-0.147s-0.035-0.093-0.065-0.132c-0.442-0.584-0.937-1.127-1.478-1.621l-1.418-1.295c0.322-0.196 0.7-0.278 1.074-0.234s0.722 0.213 0.989 0.479l1.954 1.954c0.391 0.39 0.864 0.687 1.385 0.869l0.299 0.104c0.731 0.253 1.379 0.702 1.871 1.299s0.811 1.318 0.92 2.084l0.053 0.904c0.005 0.085 0.014 0.171 0.026 0.256 0.148 1.038 0.217 1.883 0.217 2.659l0 1.724z"></path>
<path d="M31.403 11.167c-0.509-0.127-1.047-0.053-1.503 0.207s-0.793 0.686-0.943 1.188l-0.025 0.083c-0.785-0.052-1.555 0.404-1.787 1.112-0.001 0.003-0.002 0.006-0.003 0.009l-0.081 0.272c-0.455 0.047-0.885 0.23-1.233 0.527s-0.599 0.691-0.718 1.133l-0.497 1.683-1.453 1.453c-0.311 0.31-0.687 0.546-1.101 0.691l-0.299 0.104c-0.864 0.298-1.629 0.83-2.209 1.536s-0.954 1.559-1.080 2.465c-0.001 0.010-0.002 0.020-0.003 0.031l-0.053 0.92c-0.004 0.064-0.010 0.129-0.019 0.193-0.153 1.074-0.225 1.952-0.225 2.765v1.998c0 0.078 0.025 0.155 0.070 0.218s0.11 0.111 0.184 0.137c1.587 0.538 3.305 0.55 4.899 0.034l0.098-0.032c0.069-0.023 0.131-0.065 0.176-0.122s0.074-0.126 0.081-0.199l0.343-3.576c0.085-0.275 0.269-0.508 0.516-0.655 0.007-0.004 0.014-0.009 0.020-0.013l3.478-2.396c0.952-0.663 1.668-1.614 2.042-2.713 0.006-0.017 0.010-0.034 0.013-0.051l1.592-8.568c0.017-0.094-0.002-0.191-0.053-0.271s-0.132-0.138-0.225-0.161zM27.859 13.985c0.115-0.345 0.481-0.55 0.847-0.586l-0.86 2.876-0.031 0.101c-0.197-0.087-0.406-0.146-0.619-0.178l0.663-2.213zM25.83 15.905c0.001-0.003 0.002-0.006 0.003-0.010 0.065-0.242 0.188-0.464 0.36-0.646s0.386-0.319 0.623-0.397l-0.405 1.353c-0.262 0.046-0.514 0.135-0.747 0.262l0.166-0.563zM29.357 20.003c-0.324 0.936-0.936 1.745-1.749 2.311l-3.468 2.389c-0.415 0.251-0.719 0.651-0.85 1.118-0.006 0.022-0.010 0.044-0.013 0.066l-0.323 3.366c-1.315 0.397-2.718 0.399-4.035 0.008v-1.725c0-0.776 0.069-1.621 0.217-2.659 0.012-0.085 0.021-0.171 0.026-0.256l0.052-0.904c0.109-0.766 0.427-1.487 0.92-2.084s1.14-1.046 1.871-1.299l0.299-0.104c0.521-0.182 0.994-0.479 1.385-0.869l1.954-1.954c0.267-0.266 0.615-0.435 0.989-0.479s0.752 0.038 1.074 0.234l-1.418 1.295c-0.541 0.494-1.036 1.037-1.478 1.621-0.030 0.039-0.052 0.084-0.065 0.132s-0.016 0.098-0.009 0.147c0.007 0.049 0.023 0.096 0.048 0.139s0.058 0.080 0.098 0.11 0.084 0.052 0.132 0.064c0.048 0.012 0.098 0.015 0.147 0.008s0.096-0.023 0.139-0.049c0.043-0.025 0.080-0.059 0.109-0.098 0.415-0.548 0.879-1.057 1.386-1.52l1.742-1.591c0.037-0.034 0.067-0.076 0.088-0.122s0.032-0.096 0.034-0.147c0.001-0.051-0.008-0.101-0.027-0.148s-0.047-0.090-0.083-0.126c-0.026-0.026-0.053-0.052-0.080-0.077l1.207-4.026c0.077-0.26 0.234-0.488 0.449-0.653s0.476-0.259 0.746-0.267l-1.514 8.147z"></path>
<path d="M21.308 8.917c1.102-0.904 1.771-2.161 1.932-3.635l0.401-3.179c0.007-0.054 0.002-0.109-0.015-0.161s-0.044-0.1-0.081-0.14c-0.037-0.040-0.082-0.072-0.133-0.093s-0.105-0.030-0.159-0.028c-3.295 0.144-5.879 3.455-5.761 7.381l0.025 0.829c-0.387 0.772-0.712 1.574-0.971 2.397-0.209-0.484-0.481-0.939-0.807-1.353-0.074-0.759-0.202-1.511-0.383-2.251-0.373-1.451-1.332-2.576-2.567-3.009l-3.934-1.382c-0.058-0.020-0.12-0.026-0.18-0.017s-0.118 0.033-0.167 0.070c-0.049 0.037-0.089 0.085-0.115 0.14s-0.039 0.116-0.036 0.178c0.104 2.437 0.977 4.514 2.394 5.698 0.877 0.733 1.946 1.11 3.127 1.11 0.262-0 0.523-0.018 0.782-0.053l0.483-0.030c0.364 0.46 0.65 0.976 0.847 1.528 0.255 0.71 0.346 1.393 0.273 2.033h-3.916c-0.053 0-0.106 0.011-0.154 0.033s-0.092 0.054-0.127 0.093-0.062 0.086-0.077 0.137c-0.016 0.051-0.021 0.104-0.014 0.157l0.52 4.26c0.011 0.091 0.055 0.175 0.124 0.235s0.157 0.094 0.249 0.094h6.269c0.092 0 0.18-0.034 0.249-0.094s0.113-0.144 0.124-0.235l0.52-4.26c0.006-0.053 0.002-0.106-0.014-0.157s-0.042-0.097-0.077-0.137-0.078-0.072-0.127-0.093c-0.048-0.022-0.101-0.033-0.154-0.033h-2.639c0.039-0.422 0.022-0.848-0.051-1.266 0.225-1.161 0.675-2.344 1.19-3.392 1.181-0.187 2.297-0.672 3.153-1.374zM22.839 2.474l-0.344 2.724c-0.271 2.481-2.080 3.781-3.889 4.237 0.269-0.479 0.543-0.912 0.801-1.282l1.483-2.123c0.056-0.082 0.078-0.182 0.061-0.28s-0.073-0.184-0.154-0.241c-0.081-0.057-0.182-0.079-0.279-0.062s-0.185 0.072-0.242 0.153l-1.483 2.123c-0.178 0.255-0.364 0.54-0.55 0.848 0.092-3.128 2.053-5.723 4.597-6.099l0 0zM12.146 7.556c-0.073-0.067-0.171-0.102-0.27-0.097s-0.193 0.049-0.26 0.122c-0.067 0.074-0.102 0.171-0.097 0.27s0.049 0.193 0.122 0.26l2.827 2.575c-1.256 0.148-2.345-0.153-3.237-0.899-1.149-0.96-1.895-2.615-2.087-4.596l3.396 1.193c0.998 0.35 1.779 1.281 2.089 2.488 0.089 0.348 0.168 0.737 0.235 1.161l-2.718-2.476zM19.231 15.7l-0.429 3.51h-5.605l-0.429-3.51h6.463z"></path>
</symbol>
<symbol id="icon-support" viewBox="0 0 32 32">
<path d="M31.063 11.046h-3.116c-0.48-6.171-5.655-11.046-11.947-11.046s-11.467 4.875-11.947 11.046h-3.116c-0.518 0-0.938 0.42-0.938 0.938v10.042c0 0.518 0.42 0.938 0.938 0.938h4.017c0.518 0 0.938-0.42 0.938-0.938v-10.042c0-5.574 4.535-10.108 10.108-10.108s10.108 4.535 10.108 10.108v10.042c0 3.359-2.733 6.092-6.092 6.092h-1.225c-0.393-1.166-1.495-2.008-2.792-2.008-1.624 0-2.946 1.322-2.946 2.946s1.322 2.946 2.946 2.946c1.297 0 2.399-0.842 2.792-2.008h1.225c4.076 0 7.446-3.077 7.911-7.029h3.135c0.518 0 0.938-0.42 0.938-0.938v-10.042c0-0.518-0.42-0.938-0.938-0.938zM4.017 21.087h-2.142v-8.167h2.142v8.167zM16 30.125c-0.59 0-1.071-0.48-1.071-1.071s0.48-1.071 1.071-1.071c0.59 0 1.071 0.48 1.071 1.071s-0.48 1.071-1.071 1.071zM30.125 21.087h-2.142v-8.167h2.142v8.167z"></path>
<path d="M22.886 11.117c-0.35-0.145-0.753-0.065-1.022 0.203-0 0-2.927 2.926-4.315 4.313-0.623 0.627-0.981 1.492-0.981 2.375 0 0.518 0.42 0.938 0.938 0.938h4.083v2.075c0 0.518 0.42 0.938 0.938 0.938s0.938-0.42 0.938-0.938v-2.075h0.067c0.518 0 0.938-0.42 0.938-0.938s-0.42-0.938-0.938-0.938h-0.067v-5.088c0-0.379-0.228-0.721-0.579-0.866zM21.59 17.071h-2.814c0.032-0.040 0.066-0.077 0.102-0.113 0.702-0.702 1.8-1.799 2.713-2.711v2.825z"></path>
<path d="M14.929 21.021c0-0.518-0.42-0.938-0.938-0.938h-3.752c0.032-0.039 0.066-0.077 0.101-0.113 1.386-1.385 4.313-4.311 4.313-4.311 0.176-0.176 0.275-0.414 0.275-0.663v-0.502c0-1.901-1.547-3.448-3.448-3.448-1.92 0-3.448 1.556-3.448 3.447v0.001c0 0.518 0.42 0.937 0.938 0.937s0.938-0.42 0.938-0.938c0-0.859 0.692-1.572 1.573-1.572 0.867 0 1.573 0.706 1.573 1.573v0.114c-0.76 0.76-2.91 2.909-4.040 4.038-0.623 0.627-0.981 1.492-0.981 2.375 0 0.518 0.42 0.938 0.938 0.938h5.021c0.518 0 0.937-0.42 0.937-0.938z"></path>
</symbol>
<symbol id="icon-vision" viewBox="0 0 32 32">
<path d="M31.090 14.556l-2.823 2.823-4.579-4.579 2.823-2.823-0.754-0.754-5.71 5.71h-8.092l-5.71-5.71-0.754 0.754 2.823 2.823-4.579 4.579-2.823-2.823-0.754 0.754 5.867 5.867 2.827 2.812-0.427 0.427c-0.647 0.64-0.653 1.684-0.013 2.331 0.004 0.004 0.009 0.009 0.013 0.013 0.297 0.294 0.694 0.466 1.113 0.48 0.015 0.417 0.19 0.813 0.487 1.106 0.297 0.294 0.695 0.466 1.113 0.48 0.016 0.418 0.192 0.814 0.491 1.106 0.297 0.294 0.694 0.466 1.113 0.48 0.015 0.417 0.19 0.813 0.487 1.106 0.652 0.644 1.7 0.644 2.351 0l0.422-0.423 0.422 0.42c0.651 0.65 1.705 0.649 2.355-0.002 0.295-0.296 0.468-0.691 0.485-1.108 0.419-0.015 0.816-0.188 1.113-0.483s0.472-0.692 0.487-1.11c0.419-0.015 0.816-0.188 1.113-0.484 0.297-0.295 0.472-0.692 0.487-1.11 0.916-0.032 1.632-0.799 1.6-1.715-0.015-0.421-0.189-0.821-0.487-1.118l-0.404-0.403 8.672-8.672-0.753-0.753zM4.488 18.133l4.579-4.579 1.913 1.913-4.579 4.579-1.913-1.913zM10.027 26.001c-0.236 0.236-0.618 0.236-0.853 0-0.229-0.226-0.232-0.594-0.006-0.823 0.002-0.002 0.004-0.004 0.006-0.006l0.434-0.43 0.846 0.836-0.427 0.422zM11.62 27.588c-0.235 0.23-0.612 0.23-0.846-0.001-0.229-0.226-0.231-0.595-0.005-0.824 0.002-0.002 0.003-0.003 0.005-0.005l0.431-0.427 0.842 0.836-0.427 0.421zM13.227 29.174c-0.236 0.235-0.617 0.235-0.853 0-0.229-0.226-0.232-0.594-0.006-0.823 0.002-0.002 0.004-0.004 0.006-0.006l0.43-0.427 0.841 0.836-0.418 0.419zM14.827 30.76c-0.235 0.232-0.614 0.232-0.849 0-0.229-0.226-0.232-0.594-0.006-0.823 0.002-0.002 0.004-0.004 0.006-0.006l0.427-0.424 0.841 0.836-0.419 0.417zM22.828 25.975c-0.001 0.001-0.002 0.002-0.003 0.003h0.002c-0.234 0.233-0.613 0.233-0.847 0l-0.8-0.797c-0.209-0.208-0.546-0.207-0.754 0.001s-0.207 0.546 0.001 0.754l0.8 0.797c0.231 0.23 0.233 0.604 0.003 0.835-0.001 0.001-0.002 0.002-0.003 0.003-0.234 0.233-0.613 0.233-0.847 0l-0.8-0.797c-0.209-0.208-0.547-0.207-0.754 0.001s-0.207 0.546 0.001 0.754l0.8 0.797c0.231 0.23 0.233 0.604 0.003 0.835-0.001 0.001-0.002 0.002-0.003 0.003-0.234 0.233-0.613 0.233-0.847 0l-0.8-0.797c-0.209-0.208-0.546-0.207-0.754 0.001s-0.207 0.546 0.001 0.754l0.8 0.797c0.231 0.23 0.233 0.604 0.003 0.835-0.001 0.001-0.002 0.002-0.003 0.003-0.235 0.232-0.613 0.232-0.847 0l-10.024-9.959 4.8-4.8h1.713l-3.915 4.006c-0.204 0.209-0.202 0.543 0.004 0.75 0.661 0.668 1.549 1.063 2.487 1.107 0.944 0.050 1.865-0.303 2.534-0.972 0.024-0.023 0.045-0.049 0.063-0.076l0.193-0.283c1.152 0.908 2.653 1.245 4.082 0.916l3.708 3.693c0.231 0.23 0.233 0.604 0.003 0.835zM22.42 23.229l-2.237-2.228 0.404-0.308c0.019-0.015 0.037-0.031 0.053-0.049l0.533-0.533-0.754-0.754-0.507 0.507-0.461 0.348c-1.424 0.609-3.077 0.269-4.144-0.853-0.208-0.208-0.546-0.208-0.754-0-0.023 0.023-0.045 0.049-0.063 0.076l-0.504 0.738c-0.456 0.431-1.068 0.658-1.695 0.627-0.49-0.025-0.964-0.184-1.371-0.46l4.238-4.34h4.888l4.8 4.8-2.426 2.429zM25.601 20.046l-4.579-4.579 1.913-1.913 4.579 4.579-1.913 1.913z"></path>
<path d="M6.934 17.6h-1.067v1.067h1.067v-1.067z"></path>
<path d="M26.134 17.6h-1.067v1.067h1.067v-1.067z"></path>
<path d="M17.067 9.6c2.355-0.003 4.264-1.911 4.267-4.267 0-0.295-0.239-0.533-0.533-0.533h-1.067c-1.226 0.001-2.393 0.531-3.2 1.454v-1.987h0.533c2.061-0.002 3.731-1.672 3.733-3.733 0-0.295-0.239-0.533-0.533-0.533h-1.067c-1.313 0.002-2.528 0.693-3.2 1.82-0.673-1.127-1.887-1.818-3.2-1.82h-1.067c-0.294 0-0.533 0.239-0.533 0.533 0.002 2.061 1.672 3.731 3.733 3.733h0.533v1.987c-0.807-0.923-1.974-1.453-3.2-1.454h-1.067c-0.294 0-0.533 0.239-0.533 0.533 0.003 2.355 1.911 4.264 4.267 4.267h0.533v0.846l-3.421 3.421h1.508l2.446-2.446 2.446 2.446h1.508l-3.421-3.421v-0.846h0.533zM19.734 5.867h0.489c-0.262 1.539-1.595 2.665-3.156 2.667h-0.489c0.262-1.539 1.595-2.665 3.156-2.667zM19.201 1.067h0.48c-0.255 1.241-1.347 2.132-2.613 2.133h-0.48c0.255-1.241 1.347-2.132 2.613-2.133zM14.934 3.2c-1.267-0.001-2.358-0.892-2.613-2.133h0.48c1.267 0.001 2.358 0.892 2.613 2.133h-0.48zM14.934 8.533c-1.561-0.002-2.893-1.128-3.156-2.667h0.489c1.561 0.002 2.893 1.128 3.156 2.667h-0.489z"></path>
</symbol>
</defs>
</svg>
